<?xml version="1.0" encoding="UTF-8"?>
<!DOCTYPE svg PUBLIC "-//W3C//DTD SVG 1.1//EN" "http://www.w3.org/Graphics/SVG/1.1/DTD/svg11.dtd">
<!-- Creator: CorelDRAW X6 -->
<svg xmlns="http://www.w3.org/2000/svg" xml:space="preserve" width="338.667mm" height="131.934mm" version="1.1" style="shape-rendering:geometricPrecision; text-rendering:geometricPrecision; image-rendering:optimizeQuality; fill-rule:evenodd; clip-rule:evenodd"
viewBox="0 0 64834 25257"
 xmlns:xlink="http://www.w3.org/1999/xlink">
 <defs>
  <style type="text/css">
   <![CDATA[
    .fil0 {fill:#47857A}
    .fil1 {fill:#FBFEFD}
   ]]>
  </style>
 </defs>
 <g id="Layer_x0020_1">
  <metadata id="CorelCorpID_0Corel-Layer"/>
  <path class="fil0" d="M8556 25199c-211,-40 -576,-132 -810,-206 -431,-136 -1525,-654 -1765,-836 -1428,-1085 -2092,-1854 -2895,-3352 -193,-359 -560,-1417 -698,-2013 -167,-715 -159,-655 -718,-5268 -94,-773 -184,-1509 -377,-3064 -72,-586 -174,-1413 -836,-6787 -168,-1365 -329,-2676 -357,-2912 -28,-237 -64,-504 -81,-595l-18 -101 0 -63 63963 0 34 317c18,174 99,852 180,1507 31,254 62,498 91,730 382,3096 534,4321 566,5040l0 543c-2,37 -5,74 -7,111 -15,192 -40,384 -70,641 -360,3091 -2057,5724 -4487,6960 -762,387 -1334,558 -2730,814 -1130,207 -1850,340 -2583,479 -209,39 -642,119 -962,177 -320,58 -1141,207 -1823,332 -682,124 -1309,238 -1393,253 -84,15 -585,108 -1114,207 -1586,296 -1761,328 -2051,375 -153,25 -598,105 -988,179 -390,73 -891,166 -1114,206 -858,154 -1239,224 -1925,353 -390,73 -891,164 -1114,202 -223,38 -599,106 -836,150 -828,158 -3788,703 -5116,943 -1173,212 -1882,342 -4001,733 -638,118 -1222,225 -2203,405 -223,41 -724,131 -1114,200 -390,69 -812,147 -937,174 -125,26 -490,95 -810,152 -321,58 -958,175 -1418,260 -460,85 -961,175 -1114,200 -332,54 -846,148 -1975,361 -460,87 -938,176 -1064,198 -241,43 -794,143 -1672,303 -292,54 -737,133 -988,175 -251,43 -604,109 -785,148 -181,38 -534,106 -785,150 -251,44 -695,125 -988,178 -292,54 -805,147 -1140,206 -334,59 -767,139 -962,177 -195,38 -616,118 -937,176 -1549,281 -2030,370 -2381,442 -533,111 -2179,136 -2689,41zm33308 -11794l253 119 2948 1 2948 0 31 -167c17,-92 23,-1625 13,-3406 -18,-3221 -19,-3241 -132,-3525 -150,-375 -474,-737 -793,-885l-255 -119 -2976 -1 -2976 0 0 1164 2945 13 2945 13 107 143c100,134 107,205 107,1140l0 997 -3052 13 -3052 13 0 1644c0,1557 6,1659 109,1934 136,363 489,752 828,911zm-26247 52c116,43 987,61 3112,63l2950 4 0 -1165 -2901 0c-109,0 -214,0 -316,0 -2338,0 -2680,0 -2795,-162 -24,-34 -39,-77 -60,-128 -39,-95 -54,-453 -45,-1078l14 -937 3054 -13 3054 -13 -15 -1709 -15 -1709 -142 -304c-165,-353 -382,-597 -669,-752 -199,-107 -253,-110 -2609,-125 -1761,-11 -2465,2 -2626,46 -319,88 -717,472 -899,866l-147 319 -15 2718c-14,2555 -9,2734 81,2989 190,540 537,922 989,1089zm-9463 20c84,20 1545,39 3248,42l47 0c2827,5 3207,6 3485,-163 45,-27 87,-58 136,-94 218,-162 504,-610 587,-920 53,-200 70,-718 70,-2199l0 -1937 -3144 0 15 570 14 570 1080 14 1080 14 -17 1338c-15,1261 -22,1346 -121,1478 -58,78 -177,160 -265,182 -88,23 -1484,35 -3102,27l-2943 -14 -148 -166 -148 -165 0 -7133 132 -156 131 -157 6235 26 92 127c53,73 102,249 115,416 13,159 38,313 56,342 35,57 637,70 831,18 119,-31 121,-40 92,-481 -46,-713 -311,-1185 -814,-1450l-259 -137 -3137 -15c-2833,-13 -3163,-6 -3410,71 -375,118 -717,436 -904,840l-147 319 0 7547 113 279c192,474 603,870 1001,966zm22971 -8057l0 8108 494 -14 494 -15 25 -3326 25 -3326 123 -131 123 -131 3308 0 123 131 123 131 25 3326 25 3326 962 0 25 -3326 25 -3326 123 -131 123 -131 3308 0 123 131 123 131 25 3326 25 3326 962 0 15 -3090c16,-3196 -7,-3697 -186,-4100 -137,-311 -447,-633 -741,-770l-253 -118 -4774 -1 -4774 0zm20183 8041c17,45 167,63 507,63l483 0 0 -3243c0,-3463 4,-3512 247,-3642 71,-38 812,-51 2392,-42l2288 13 107 143c106,142 107,176 121,3457l14 3314 960 0 5 -3153c3,-1734 2,-3267 -2,-3406 -15,-592 -415,-1224 -911,-1437 -250,-107 -284,-108 -3231,-96l-2978 13 -13 3976c-7,2187 -2,4005 11,4039zm-26392 -6c20,52 147,69 510,69l483 0 0 -6600 129 -170 129 -169 4148 0 0 -1165 -4235 0 -263 131c-312,156 -580,448 -763,831l-133 279 -16 3362c-9,1849 -4,3393 11,3432zm-2249 -5540l0 1000 -2524 0c-1388,0 -2540,-15 -2558,-34 -19,-18 -34,-473 -34,-1009l0 -976 131 -156 131 -156 4652 0 100 165c91,149 100,257 101,1165zm26364 2140l0 2279 -2414 13 -2414 13 -131 -157c-72,-86 -144,-206 -159,-266 -15,-60 -20,-509 -12,-996l14 -886 5116 0z"/>
  <path class="fil1" d="M6154 13477c-399,-96 -809,-492 -1001,-966l-113 -279 0 -3774 0 -3774 147 -319c186,-404 528,-722 904,-840 247,-77 577,-85 3410,-71l3137 15 259 137c503,265 768,737 814,1450 29,441 27,450 -92,481 -195,52 -796,39 -831,-18 -18,-29 -43,-183 -56,-342 -13,-167 -62,-343 -115,-416l-92 -127 -3117 -13 -3118 -13 -131 157 -132 156 0 3566 0 3566 148 165 148 166 2943 14c1618,8 3015,-5 3102,-27 88,-23 207,-105 265,-182 99,-132 106,-217 121,-1478l17 -1338 -1080 -14 -1080 -14 -14 -570 -15 -570 1572 0 1572 0 0 1937c0,1481 -17,1999 -70,2199 -83,310 -368,759 -587,920 -357,263 -339,262 -3667,257 -1702,-3 -3164,-22 -3248,-42zm9463 -20c-452,-166 -799,-549 -989,-1089 -90,-255 -94,-435 -81,-2989l15 -2718 147 -319c182,-394 580,-778 899,-866 161,-45 865,-57 2626,-46 2355,15 2410,18 2609,125 286,155 504,399 669,752l142 304 15 1709 15 1709 -3054 13 -3054 13 -14 937c-10,626 6,983 45,1078 125,300 8,290 3171,290l2901 0 0 582 0 582 -2950 -4c-2124,-3 -2996,-20 -3112,-63zm5049 -5542c-1,-908 -10,-1016 -101,-1165l-100 -165 -2326 0 -2326 0 -131 156 -131 156 0 976c0,536 15,991 34,1009 18,19 1170,34 2558,34l2524 0 0 -1000zm2249 5540c-15,-38 -20,-1583 -11,-3432l16 -3362 133 -279c183,-383 451,-676 763,-831l263 -131 2118 0 2117 0 0 582 0 582 -2074 0 -2074 0 -129 169 -129 170 0 3300 0 3300 -483 0c-363,0 -489,-17 -510,-69zm6209 -3981l0 -4054 4774 0 4774 1 253 118c294,137 603,459 741,770 179,403 202,904 186,4100l-15 3090 -481 0 -481 0 -25 -3326 -25 -3326 -123 -131 -123 -131 -1654 0 -1654 0 -123 131 -123 131 -25 3326 -25 3326 -481 0 -481 0 -25 -3326 -25 -3326 -123 -131 -123 -131 -1654 0 -1654 0 -123 131 -123 131 -25 3326 -25 3326 -494 15 -494 14 0 -4054zm12739 3931c-339,-159 -692,-548 -828,-911 -103,-275 -109,-377 -109,-1934l0 -1644 3052 -13 3052 -13 0 -997c0,-935 -7,-1005 -107,-1140l-107 -143 -2945 -13 -2945 -13 0 -582 0 -582 2976 0 2976 1 255 119c319,148 643,510 793,885 113,285 114,304 132,3525 10,1781 4,3314 -13,3406l-31 167 -2948 0 -2948 -1 -253 -119zm5166 -2210l0 -1140 -2558 0 -2558 0 -14 886c-8,487 -3,936 12,996 15,61 87,180 159,266l131 157 2414 -13 2414 -13 0 -1140zm2277 2267c-13,-35 -18,-1852 -11,-4039l13 -3976 2978 -13c2947,-13 2980,-12 3231,96 495,213 896,845 911,1437 3,139 4,1672 2,3406l-5 3153 -480 0 -480 0 -14 -3314c-14,-3281 -15,-3315 -121,-3457l-107 -143 -2288 -13c-1580,-9 -2321,4 -2392,42 -243,130 -247,179 -247,3642l0 3243 -483 0c-340,0 -490,-19 -507,-63z"/>
 </g>
</svg>
