<?xml version="1.0" encoding="UTF-8"?>
<svg id="Layer_2" data-name="Layer 2" xmlns="http://www.w3.org/2000/svg" viewBox="0 0 80.42 81.59">
  <defs>
    <style>
      .cls-1 {
        fill: #231f20;
        fill-rule: evenodd;
      }
    </style>
  </defs>
  <g id="Layer_1-2" data-name="Layer 1">
    <g>
      <path class="cls-1" d="M19.64,46.14c.08-.11.71-.67.84-.75,0,.37.06.26.08.59-.26.02-.67.11-.92.17h0ZM59.52,41.71c1.63,0,2.51.27,3.45,1.98.58,1.05,1.12,2.37,1.56,3.2l-5.02-1v-4.18h0ZM56.09,41.38h1.17v4.18c-.29-.07-.83-.17-1.17-.17v-4.01h0ZM23.74,45.47v-4.1h1c0,.9.33,2.22.72,2.95.15.27.37.52.45.81-.66.16-1.5.18-2.17.33h0ZM53,41.38h.92v3.68c-.66,0-1.19-.15-1.76-.17l.84-3.51h0ZM47.15,41.38c1.12,0,.95-.09,1.09.66l.58,2.52-1.67-.08v-3.09h0ZM17.22,44.89c-1.99,0-2.39-2.25-.78-3.04,1.16-.57,2.68-.47,3.96-.47,0,1.09-.16,2.06-.73,2.62-.47.47-1.53.89-2.45.89h0ZM28.25,41.38h10.37v1h4.18v-1h2.17v3.01c-.76,0-1.27-.08-2.09-.08h-6.6c.09-.38.49-.97.5-1.67l-3.34-.5c-.08,1.02-1,2.26-2.09,2.26-.89,0-1.86,0-2.49-.93-.39-.57-.6-1.13-.6-2.08h0ZM50.24,41.38h.59c-.03.41-.21.81-.25,1.25l-.1-.23c-.04-.12-.04-.16-.07-.34-.03-.15-.11-.56-.16-.68h0ZM72.73,41.38h1.92c.03.36.14.4.17.75h-3.01c.04-.53,1.38-4.33,1.42-4.85h.17c.04.48.77,2.44.92,3.09h-1.59v1h0ZM56.09,36.45c0-.3.2-.24.48-.27.22-.03.39-.06.69-.06v4.26h-1.17v-3.93h0ZM53.83,37.45h.08v2.93h-.67c0-.36.21-1.08.3-1.45.1-.4.28-1.06.28-1.47h0ZM47.15,37.78h.17c.02.67.5,1.87.5,2.59-.93,0-.67-.04-.67-2.59h0ZM61.94,39.71h-2.42v-3.59c2.14,0,4.85-.4,4.85,1.84,0,1.2-1.21,1.76-2.42,1.76h0ZM36.68,37.28l3.19.08c1.8,0,3.31-.08,5.1-.08v3.09h-2.17v-.84h-4.18v.84h-10.45c0-1.59.41-3.05,1.93-3.59.69-.24,1.7-.18,2.24.17.6.39.91.95,1.1,1.74.43,0,2.71-.6,3.34-.75l-.1-.67h0ZM51.08,40.38c-1.24,0-1.02.11-1.19-.73l-.39-1.78c-.07-.33-.17-.56-.17-.91.98,0,1.65-.17,2.51-.17-.14.6-.24,1.15-.39,1.79-.11.5-.36,1.33-.37,1.81h0ZM23.49,36.11c.58.14,1.67.29,2.26.33-1.35,2.01-.69,3.93-1.25,3.93h-.75c0-1.15.04-2.17-.08-3.27-.05-.46-.12-.6-.17-1h0ZM15.63,38.12c.33-.62.61-1.59,2.01-1.59.86,0,1.63-.08,2.32.52.33.29.44.79.44,1.4l-1.62.47c-.6.15-1.09.26-1.7.39-1.08.23-1.46.32-2.42.75,0,0-.16.07-.17.08-.28.14-.31.23-.6.23h-2.51v-6.77c.51.04,1.23.31,1.74.44.39.1,1.35.39,1.77.4-.09.08-.01.02-.14.11-.95.63-1.53,1.13-2,2.27-.42,1.03-.09.74.92.93.68.13,1.34.22,1.97.37h0ZM3.09,30.18c-.23-.02-1.42-.34-1.59-.42-.02.23-.17.84-.25,1,.26.13,1.49.47,1.84.5v1.34h3.43v-.33c.51.04.97.3,1.42.33v7.02c.02,1.03-.21.75-1.17.75-.19,0-.25-.06-.25-.25v-5.77h-2.09c.02-.67.35-.35-2.04-.8-1.32-.25-1.58-.5-1.72-.04-.03.1-.08.61-.08.75l1.97.37c.8.12.53.18.53,2.39-.92,0-1.88-.25-2.84-.25l-.08,1.09c.87,0,1.51.14,2.35.16.85.02.58.17.58,2.09,0,.19-.06.25-.25.25H0v1h3.09v2.17c-.96,0-1.99.25-2.93.25l.08,1c1.03,0,1.76-.17,2.84-.17v2.26c-.79.07-1.75.4-2.51.42,0,.3.03.47.06.69.06.39,0,.37.29.34.23-.02.37-.08.64-.13l2.7-.48c.36-.12.16-.04.15-.51h2.09v-5.85h1.42v5.85h3.43v-5.85h1.5c-.2.29-.35.54-.47.95-.49,1.69.09,3.47,1.58,4.29.17.09.32.17.51.24.33.13.38.05.55.29-.37,0-4.31,1-4.85,1.25.02.23.17.84.25,1,1.2-.57,10.41-2.58,11.53-2.59.69,0,1.4,0,2.09,0,0-.01,0-.05,0-.04v-.09c-.03-.39.11-.27,1.23-.39.57-.06,1.35-.32,1.77-.06,1.42.87,2.6.99,4.28.99,1.45,0,2.71-.58,3.52-1.24.92-.75.2-.58,1.83-.6.47,0,.58-.09,1.08-.09h3.6c1.3,0,2.3.09,3.59.09v2.09h2.17v-1.92l1.92.08c.05.57.29,1.29.42,1.84h2.09c.2-.41.21-1.16.42-1.59.48.04,1.48.15,1.92.25v1.34h2.17v-1.09c.29.07.83.17,1.17.17v.92h2.26v-.5c.74.02,2,.32,2.69.48,1.29.29,6.71,1.44,7.76,1.94.08-.16.23-.77.25-1-.27-.13-2.82-.83-3.18-.84l.42-.08c-.14-.62-2.07-4.28-2.49-4.86-.19-.26-.34-.47-.59-.67-.19-.15-.56-.4-.68-.57h5.77c-.01.55-1.17,3.82-1.43,4.59-.15.46-.29,1.1-.49,1.52h2.59c.24-1.04.67-2.04.92-3.09h4.51l.6,2c.08.35-.19.74-.19,1.35,1.32.03,2.46.59,3.76.59l.1-1c-.38-.01-.41-.09-.85-.09l-.85-2.59c.67.05,1.27.16,2.02.16l.08-1c-.61,0-1.19-.15-1.84-.16-.36,0-.42.07-.6-.15-.11-.14-.63-1.83-.65-2.11h3.26v-1h-3.43c-.36,0-.6-1.2-.71-1.55l-1.37-4.23c-.34-1.05-.13-.74-2.77-.74-.39,0-.56,1.2-.67,1.5-.28.76-1.54,4.46-1.59,5.02h-3.93c.08-.3.09-.18.25-.42.97-1.55.56-4.82-1.08-5.26.17-.23.2-.16.52-.24.9-.21,4.11-1.15,4.58-1.18,0-.34-.14-.77-.25-1-.27.02-.69.17-.94.23l-4.93,1.26c-1.05.26-1.13.1-2.24.1h-4.6v1.17c-.29.07-.83.17-1.17.17v-1.34h-3.68c-.01.62-.32,1.26-.33,1.84-1.03.02-1.98.25-3.01.25-.06-.67-.36-1.4-.42-2.09h-3.68v2.34c-.48,0-.58.08-1.09.08h-7.44c-.24,0-.3-.18-.4-.35-.32-.5-.72-.86-1.23-1.19-2.22-1.46-6.14-1.2-7.95.39-.63.55-.33.4-1.82.18-.77-.11-2.15-.21-2.66-.52-.67-.4-1.46-.69-2.33-.84-1.45-.26-1.72-.09-3-.09-.49,0-1.01-.17-1.48-.27-.44-.09-.91-.22-1.41-.35-.63-.16-2.29-.68-2.79-.72v-3.34h-3.43v2.34c-1.84-.43-1.42-.12-1.42-2.34h-3.43v1h0Z"/>
      <path class="cls-1" d="M13.12,25.66l2.65,1.53c.47.26.91.46,1.39.7.26.13.41.21.67.34,5.93,2.97,14.86,4.79,21.54,4.79,6.2,0,11.1-.58,16.29-2.18,1.08-.33,2.08-.63,3.14-1.04.28-.11.47-.15.74-.26l3.65-1.61c.47-.23.9-.45,1.39-.7.83-.41,1.94-1.16,2.7-1.56-.06-.24-.37-.72-.5-.92l-4.01,2.26c-.52.23-.97.47-1.49.68l-6.97,2.48c-9.21,2.51-20.02,2.46-28.94-.2-1.98-.59-5.02-1.63-6.88-2.57-.27-.13-.44-.24-.73-.36-.57-.23-.91-.47-1.44-.73l-2.7-1.56c-.21.31-.32.58-.5.92h0Z"/>
      <path class="cls-1" d="M13.12,55.92c.11.46.32.5.42.92.32-.03.44-.19.67-.33l3.23-1.79c1.13-.57,3.16-1.4,4.27-1.84,1.02-.4,1.99-.68,3.07-1.03,3.88-1.27,10.11-2.2,14.1-2.2h3.68c.42,0,.46.08.91.09,3.19.02,9.21,1.17,12.11,2.1,2.62.84,5.48,1.88,7.95,3.17l1.99,1.1c.3.18,1.06.71,1.35.74.1-.42.31-.46.42-.92l-2.73-1.53c-3.44-1.71-5.37-2.59-9.25-3.7-2.26-.65-4.59-1.17-7.09-1.52-2.69-.38-5.31-.6-8.01-.6-5.72,0-13.23,1.14-18.33,3.15-3.04,1.2-5.26,2.14-8.05,3.82-.23.14-.46.32-.7.38h0Z"/>
      <path class="cls-1" d="M17.97,62.69l.65.69,2-1.8c.21-.18.25-.24.49-.43,1.78-1.39,3.19-2.42,5.22-3.48,1.37-.71,2.58-1.21,4.05-1.72,3.09-1.08,6.46-1.7,9.83-1.7,3.92,0,7.6.82,11.19,2.18,2.65,1.01,5.06,2.56,7.31,4.23.7.52,1.46,1.27,2.08,1.77.37.29.61.68.99.93l.69-.65c-.46-.68-2.18-2.12-3.02-2.79-7.33-5.85-17.41-8.1-26.56-5.81-4.22,1.06-7.11,2.46-10.72,4.91-.39.26-.75.55-1.1.82l-1.11.9c-.49.43-1.7,1.52-1.99,1.94h0Z"/>
      <path class="cls-1" d="M17.95,18.96c.37.54,2.29,2.15,2.96,2.68,1.29,1.03,3.11,2.26,4.59,3.02,2.23,1.15,4.11,2.01,6.75,2.69,5.27,1.35,10.56,1.35,15.85.02,2.83-.71,5.56-1.92,8-3.37,2.73-1.63,3.27-2.26,5.4-4.04.27-.22.77-.71.94-.98l-.73-.77c-.41.6-1.33,1.33-1.88,1.84-1.06.99-3.15,2.4-4.33,3.11-4.1,2.46-9.58,4.18-14.54,4.18-5.39,0-8.79-.73-13.54-2.84-.85-.38-1.58-.84-2.4-1.28-1.15-.62-3.36-2.21-4.4-3.13-.2-.18-.27-.27-.48-.44l-1.42-1.42-.77.73h0Z"/>
      <path class="cls-1" d="M24.41,67.96c.42.1.46.31.92.42.19-.73,1.98-2.69,2.57-3.28.53-.53.92-.94,1.51-1.41.57-.46,1.07-.82,1.7-1.23,4.84-3.11,10.87-3.57,16.26-1.08.65.3,1.32.66,1.88,1.04.8.54,1.79,1.18,2.47,1.88l.79.72c.13.16.13.2.3.37.63.66,2.1,2.32,2.28,2.99.46-.11.5-.32.92-.42-.15-.63-1.65-2.41-2.2-3.07-.14-.16-.26-.27-.41-.42-3.28-3.26-7.58-5.71-12.69-5.71h-1c-4.49,0-8.12,1.92-11.03,4.18-1.17.91-4.01,3.93-4.26,5.02h0Z"/>
      <path class="cls-1" d="M24.41,13.71c.2.74,2.1,2.89,2.7,3.49,2.78,2.78,6.17,4.87,10.19,5.44.45.06.98.16,1.41.18l1.5.09c2.01.01,4.61-.51,6.46-1.23,1.3-.51,2.97-1.39,4.06-2.21.3-.23.61-.43.91-.68.85-.72,1.66-1.47,2.39-2.29.15-.17.18-.24.34-.42.16-.18.22-.27.38-.46.26-.32,1.18-1.55,1.27-1.9-.3-.16-.47-.33-.84-.42l-1.21,1.64c-.42.54-.85,1.05-1.32,1.52-2.08,2.08-4.06,3.43-6.91,4.46l-2.23.61c-2.93.54-6.06.39-8.82-.61-1.8-.65-3.1-1.37-4.63-2.47-.7-.5-2.1-1.73-2.6-2.33l-1.59-2.01c-.19-.25-.4-.66-.61-.81-.36.08-.54.26-.84.42h0Z"/>
      <path class="cls-1" d="M31.6,10.53c.4.84.52,1.47,1.25,2.51,3.65,5.19,10.98,5.27,14.71,0,.94-1.32.77-1.5,1.25-2.51-.34-.08-.62-.22-1-.25-.17.36-.28.72-.47,1.12-.21.43-.38.67-.63,1.04-.39.58-1.06,1.31-1.61,1.74-4.28,3.33-9.85,1.59-12-2.72-.19-.38-.32-.79-.5-1.17-.31.03-.69.18-1,.25h0Z"/>
      <path class="cls-1" d="M31.6,71.05c.31.15.73.2,1,.33.15-.65.75-1.67,1.09-2.17.45-.68.92-1.18,1.56-1.7.67-.54,1.18-.89,2.03-1.23,4-1.59,8.06.18,10.06,3.9.13.23.42.95.47,1.2.28-.13.7-.19,1-.33-.19-.41-.31-.79-.53-1.23-.86-1.72-1.86-2.74-3.39-3.8-.94-.66-2.82-1.32-4.11-1.32h-1.17c-3.09,0-6.13,2.39-7.47,5.07-.12.24-.21.41-.3.62-.09.23-.17.46-.26.66h0Z"/>
      <path class="cls-1" d="M68.38,57.93l4.76,2.76c.33.2,1.36.84,1.68.91.13-.24.39-.63.42-.92-.55-.29-1.07-.6-1.59-.92l-4.84-2.85c-.1.38-.38.52-.42,1h0Z"/>
      <path class="cls-1" d="M56.17,69.8c.58,1.1,1.22,2.19,1.83,3.26l1.39,2.46c.14.24.4.64.45.88.24-.06.72-.37.92-.5-.06-.23-.31-.61-.43-.82l-3.24-5.78c-.27.14-.64.43-.92.5h0Z"/>
      <path class="cls-1" d="M56.17,11.79c.2.13.68.44.92.5l2.77-4.92c.21-.35.83-1.37.9-1.69-.37-.1-.52-.38-.92-.42-.59,1.11-1.22,2.19-1.83,3.26l-1.84,3.26h0Z"/>
      <path class="cls-1" d="M11.43,12.27c.11.34.36.49.58.71l4.62,4.74.77-.73-5.29-5.37-.69.65h0Z"/>
      <path class="cls-1" d="M48.23,8.61c.31.03.69.18,1,.25l1.92-7.36c-.31-.03-.69-.18-1-.25l-1.92,7.36h0Z"/>
      <path class="cls-1" d="M1.25,50.82c.08.34.22.62.25,1l7.19-1.92c-.01-.49-.17-.46-.17-1-.51.01-6.44,1.73-7.27,1.92h0Z"/>
      <path class="cls-1" d="M29.26,80.08c.23.11.67.24,1,.25l1.42-5.43c.14-.52.3-1.41.5-1.84-.23-.11-.67-.24-1-.25-.1.2-.17.62-.24.85-.09.31-.17.64-.24.93-.16.62-.31,1.22-.49,1.85l-.95,3.65h0Z"/>
      <path class="cls-1" d="M5.18,60.69c.1.41.33.59.42.92.4-.09,2.87-1.61,3.26-1.84l3.26-1.92c-.13-.2-.44-.68-.5-.92-.78.41-6.13,3.68-6.44,3.76h0Z"/>
      <path class="cls-1" d="M48.32,72.98c0,.49.74,3.09.9,3.7l.94,3.66c.26,0,.83-.17,1-.25l-1.67-6.44c-.35-1.36-.25-.69-1.17-.67h0Z"/>
      <path class="cls-1" d="M71.72,31.77c.02.23.17.84.25,1,.34-.16,6.72-1.78,7.19-2.01-.08-.34-.22-.62-.25-1-.5.24-6.68,1.76-7.19,2.01h0Z"/>
      <path class="cls-1" d="M11.45,69.3l.65.69c.39-.27.98-.94,1.34-1.29.47-.47.87-.87,1.34-1.34l2.61-2.74-.69-.65c-.35.23-4.99,4.94-5.25,5.33h0Z"/>
      <path class="cls-1" d="M63.03,16.97l.69.73c.31-.2,3.36-3.4,3.97-4.02.29-.29,1.19-1.07,1.28-1.4l-.65-.69-5.29,5.37h0Z"/>
      <path class="cls-1" d="M63.01,64.68c.47.32,4.6,4.83,5.29,5.29l.69-.65c-.53-.77-4.93-4.96-5.2-5.37l-.77.73h0Z"/>
      <path class="cls-1" d="M19.64,5.68l.87,1.64c.34.57.62,1.07.94,1.65.63,1.13,1.27,2.19,1.86,3.32.24-.06.72-.37.92-.5l-.9-1.6c-.34-.56-.62-1.1-.94-1.65-.62-1.07-1.25-2.16-1.83-3.26-.4.03-.55.32-.92.42h0Z"/>
      <path class="cls-1" d="M19.64,75.9c.27.14.64.43.92.5.07-.3.68-1.29.88-1.62l2.79-4.98c-.34-.09-.5-.33-.84-.42-.27.18-.34.45-.52.74l-3.24,5.78h0Z"/>
      <path class="cls-1" d="M5.18,20.9l6.44,3.76c.17-.32.33-.6.5-.92l-6.52-3.76c-.11.46-.32.5-.42.92h0Z"/>
      <path class="cls-1" d="M71.72,49.9c.29.02.55.14.87.22l6.32,1.71c.08-.34.17-.67.25-1-.6-.14-1.17-.29-1.78-.47l-4.47-1.22c-.27-.07-.6-.21-.94-.23-.08.16-.23.77-.25,1h0Z"/>
      <path class="cls-1" d="M68.3,23.74c.17.32.33.6.5.92l6.44-3.76c-.11-.46-.32-.5-.42-.92l-3.23,1.87c-.29.16-.53.32-.79.47l-2.5,1.43h0Z"/>
      <polygon class="cls-1" points="39.62 7.61 40.63 7.61 40.63 0 39.62 0 39.62 7.61 39.62 7.61"/>
      <path class="cls-1" d="M29.26,1.5l1.92,7.36c.32-.07.7-.23,1-.25-.19-.39-1.91-7.15-1.92-7.36-.32.07-.7.23-1,.25h0Z"/>
      <polygon class="cls-1" points="39.62 81.59 40.63 81.59 40.63 74.06 39.62 74.06 39.62 81.59 39.62 81.59"/>
      <path class="cls-1" d="M3.59,57.51c.09.4.25.68.42,1l3.43-1.59c-.03-.34-.28-.74-.42-1l-3.43,1.59h0Z"/>
      <path class="cls-1" d="M72.98,56.93l2.59,1.17c.28.14.56.27.84.42.14-.26.39-.66.42-1l-3.43-1.59c-.17.33-.32.6-.42,1h0Z"/>
      <path class="cls-1" d="M52.25,5.93c.23.11.7.31,1,.33l1.25-3.59c-.24-.13-.65-.33-1-.33l-.93,2.66c-.11.3-.24.57-.32.93h0Z"/>
      <path class="cls-1" d="M7.02,63.7c.07.28.39.78.59.92l3.09-2.17c-.18-.33-.38-.62-.59-.92-.73.49-2.44,1.83-3.09,2.17h0Z"/>
      <path class="cls-1" d="M63.28,69.3c.04.43,1.45,1.93,1.77,2.33.14.18.5.65.66.76.27-.18.4-.49.75-.59-.07-.27-2.23-2.86-2.42-3.01-.45.12-.31.38-.75.5h0Z"/>
      <path class="cls-1" d="M7.02,17.89c.52.35,2.81,2.09,3.18,2.17.08-.28.35-.6.5-.84-.56-.38-2.68-2.06-3.18-2.17-.15.23-.43.55-.5.84h0Z"/>
      <path class="cls-1" d="M74.23,27.67c.02.3.22.77.33,1,.33-.03,1.41-.49,1.79-.63.37-.14,1.49-.59,1.8-.62-.09-.4-.24-.6-.33-1-.33.08-.56.18-.87.3l-2.72.95h0Z"/>
      <path class="cls-1" d="M69.72,62.44c.56.3,1.06.74,1.59,1.09.53.35,1.03.79,1.59,1.09.17-.32.42-.58.5-.92l-2.27-1.57c-.27-.18-.5-.44-.82-.52-.21.16-.45.58-.59.84h0Z"/>
      <path class="cls-1" d="M67.79,65.04c.3.08.18.07.4.27l2.16,1.85c.21.19.11.2.44.23.1-.37.4-.44.5-.84l-2.93-2.42c-.11.17-.18.27-.32.44-.19.22-.19.15-.27.48h0Z"/>
      <path class="cls-1" d="M72.98,24.74c.09.41.3.49.33.92.37-.03,3.04-1.34,3.51-1.59-.08-.35-.24-.51-.33-.92-.35.03-.6.22-.89.36-.31.16-.58.25-.87.39l-1.75.84h0Z"/>
      <path class="cls-1" d="M9.11,66.62c.08.12.14.23.24.34.18.23.18.1.26.41.45-.04,1.2-.85,1.53-1.15l.72-.62c.17-.14.19-.13.37-.3.21-.2.11-.19.4-.27-.04-.43-.11-.22-.59-.92-.48.32-1,.85-1.45,1.23l-1.48,1.28h0Z"/>
      <path class="cls-1" d="M22.74,4.01c.14.61,1.36,2.9,1.5,3.51.38-.03.64-.25,1-.33-.09-.41-.59-1.34-.79-1.8-.14-.34-.26-.52-.39-.86-.12-.3-.33-.61-.41-.93-.25.13-.63.35-.92.42h0Z"/>
      <path class="cls-1" d="M25.91,2.67c.1.21,1.23,3.28,1.25,3.59.34-.03.76-.21,1-.33-.21-.91-1.1-2.95-1.25-3.59-.35,0-.76.21-1,.33h0Z"/>
      <path class="cls-1" d="M52.25,75.65c.04.45,1.05,2.79,1.25,3.68.38-.09.67-.26,1-.33-.06-.26-.23-.66-.32-.93-.11-.34-.23-.6-.34-.92l-.68-1.83c-.24.12-.63.27-.92.33h0Z"/>
      <path class="cls-1" d="M32.68.67c0,.98.59,2.89.59,3.85,1.46,0,1.03-.17.61-2.7-.07-.39-.18-.87-.19-1.23-.49,0-.58.08-1,.08h0Z"/>
      <path class="cls-1" d="M2.26,27.33c.51.27,1.15.46,1.74.68.36.13,1.5.63,1.85.66.13-.24.31-.67.33-1-.31-.03-2.13-.73-2.66-.93-.25-.09-.62-.3-.93-.32-.08.33-.19.65-.33.92h0Z"/>
      <path class="cls-1" d="M55.17,7.19c.36.08.62.3,1,.33l1.5-3.51c-.29-.07-.67-.28-.92-.42-.1.45-1.47,3.1-1.59,3.59h0Z"/>
      <path class="cls-1" d="M3.59,24.07c.45.24,3.17,1.56,3.51,1.59.1-.41.25-.57.33-.92-.29-.15-.54-.24-.86-.39-.46-.22-2.3-1.17-2.65-1.2-.04.43-.24.51-.33.92h0Z"/>
      <path class="cls-1" d="M60.69,10.28c.25.17.64.51.92.59.15-.57,1.96-2.72,2.09-3.26-.32-.09-.52-.33-.84-.5-.72,1.07-1.46,2.11-2.17,3.18h0Z"/>
      <path class="cls-1" d="M13.96,71.81c.29.08.19.07.4.27.23.23.16.17.44.31.36-.54.77-.98,1.18-1.49.21-.26.38-.47.6-.74.31-.37.53-.48.56-.86-.49-.13-.3-.46-.84-.5-.13.48-2.21,2.53-2.34,3.01h0Z"/>
      <path class="cls-1" d="M2.26,54.25c.12.24.27.63.33.92.41,0,1.42-.46,1.81-.61.3-.12.58-.2.86-.31.28-.11.66-.21.92-.33-.02-.21-.25-.83-.33-1-.22.1-.63.24-.85.32l-2.75,1.02h0Z"/>
      <path class="cls-1" d="M46.14,4.26c0,.2.76.25,1,.25,0-.86.59-2.8.59-3.85-.42,0-.51-.08-1-.08l-.29,1.8c-.06.35-.09.58-.15.93-.05.28-.14.57-.14.94h0Z"/>
      <path class="cls-1" d="M25.91,79c.4.09.6.24,1,.33.23-.98,1.02-2.69,1.25-3.68-.28-.07-.68-.22-.92-.33-.16.29-.23.56-.34.91l-.99,2.77h0Z"/>
      <path class="cls-1" d="M16.72,73.98c.5.27.51.47.92.5.11-.42,1.69-2.43,2.09-3.18-.5-.27-.53-.42-.84-.5-.22.16-2.04,2.92-2.17,3.18h0Z"/>
      <path class="cls-1" d="M74.23,53.92c.65.15,3.07,1.24,3.59,1.25.04-.19.25-.75.33-.92-.69-.33-2.92-1.01-3.59-1.34-.11.23-.27.72-.33,1h0Z"/>
      <path class="cls-1" d="M55.17,74.48l1.59,3.51c.29-.07.67-.28.92-.42l-.75-1.75c-.13-.29-.29-.55-.41-.85-.14-.34-.27-.61-.43-.91-.29.16-.62.26-.92.42h0Z"/>
      <path class="cls-1" d="M22.74,77.57c.25.13.63.35.92.42l1.59-3.51c-.31-.16-.6-.27-.92-.42-.16.3-.25.51-.39.86l-.8,1.71c-.13.3-.33.68-.39.94h0Z"/>
      <path class="cls-1" d="M60.69,71.3l1.59,2.34c.15.22.43.57.5.84.31-.03.75-.36.92-.59-.17-.26-1.97-2.95-2.17-3.09-.3.08-.33.23-.84.5h0Z"/>
      <path class="cls-1" d="M76.4,37.12c0,.49.08.58.08,1,1.34,0,2.4-.25,3.76-.25,0-.67.05-.53-.08-1.09-.71,0-2.96.33-3.76.33h0Z"/>
      <path class="cls-1" d="M32.68,80.92c.26.06.71.16,1,.17,0-.55.2-1.3.3-1.87.1-.62.29-1.36.29-1.97-.38,0-.65-.14-1-.17,0,.82-.59,3.14-.59,3.85h0Z"/>
      <path class="cls-1" d="M46.14,77.24c0,1.03.59,2.99.59,3.85.3,0,.74-.11,1-.17,0-.67-.59-3.07-.59-3.85-.36.03-.62.16-1,.17h0Z"/>
      <path class="cls-1" d="M67.79,16.72c.18.27.4.57.67.75.12-.1.22-.19.36-.31.17-.15.21-.16.37-.3l.71-.63c.33-.28,1.21-.99,1.4-1.27-.16-.24-.41-.49-.59-.75l-2.19,1.82c-.15.13-.17.18-.35.32-.23.18-.22.13-.38.37h0Z"/>
      <path class="cls-1" d="M69.72,19.23c.19.28.4.56.59.84l3.09-2.17c-.08-.28-.35-.6-.5-.84-.29.07-.24.07-.44.22l-2.73,1.95h0Z"/>
      <path class="cls-1" d="M42.97,4.01c.78,0,.55.05,1,.08,0-.41.07-.47.08-.92.02-.78.25-2.26.25-3.01-.65,0-.46.04-1-.08,0,.66-.33,3.13-.33,3.93h0Z"/>
      <path class="cls-1" d="M63.28,12.2c.13.2.55.53.75.67.15-.23.41-.51.6-.74l1.83-2.27c-.24-.16-.49-.41-.75-.59-.31.21-.97,1.09-1.24,1.43-.35.43-.95,1.05-1.18,1.49h0Z"/>
      <path class="cls-1" d="M16.72,7.69l2.17,3.18c.28-.19.56-.4.84-.59-.72-1.07-1.46-2.11-2.17-3.18-.34.18-.53.38-.84.59h0Z"/>
      <path class="cls-1" d="M36.7.17h-.59c0,.76.33,3.13.33,3.93.46-.04.23-.08,1-.08,0-.82-.31-3.05-.33-3.93-.19.04-.19.08-.42.08h0Z"/>
      <path class="cls-1" d="M36.11,81.42c.42,0,.51.08,1,.08.02-.83.33-3.02.33-3.85-.46-.04-.23-.08-1-.08,0,.41-.07.47-.08.92-.02.74-.25,2.25-.25,2.93h0Z"/>
      <path class="cls-1" d="M9.11,14.96l2.84,2.51c.27-.18.48-.48.67-.75-.18-.27-2.5-2.23-2.93-2.51-.17.26-.42.51-.59.75h0Z"/>
      <path class="cls-1" d="M13.96,9.86c.55.81,1.97,2.33,2.42,3.01.27-.18.57-.4.75-.67l-1.78-2.24c-.23-.26-.37-.51-.65-.69-.26.17-.51.42-.75.59h0Z"/>
      <path class="cls-1" d="M76.07,34.94l3.76-.67c0-.35-.06-.78-.17-1l-3.57.62c-.36.13-.03.17-.03,1.06h0Z"/>
      <path class="cls-1" d="M42.97,77.66c0,.6.15,1.33.17,1.92l.17,1.92c.49,0,.58-.08,1-.08,0-.76-.32-3.03-.33-3.85l-1,.08h0Z"/>
    </g>
  </g>
</svg>