<?xml version="1.0" encoding="UTF-8"?>
<svg id="Layer_2" data-name="Layer 2" xmlns="http://www.w3.org/2000/svg" viewBox="0 0 83.22 95.23">
  <defs>
    <style>
      .cls-1 {
        stroke-width: .68px;
      }

      .cls-1, .cls-2, .cls-3, .cls-4, .cls-5, .cls-6 {
        fill: none;
        stroke: #231f20;
        stroke-miterlimit: 2.61;
      }

      .cls-2 {
        stroke-width: .84px;
      }

      .cls-3 {
        stroke-width: .68px;
      }

      .cls-4 {
        stroke-width: .25px;
      }

      .cls-7 {
        fill: #231f20;
        fill-rule: evenodd;
      }

      .cls-5 {
        stroke-width: .76px;
      }

      .cls-6 {
        stroke-width: 1.01px;
      }
    </style>
  </defs>
  <g id="Layer_1-2" data-name="Layer 1">
    <g>
      <polygon class="cls-2" points="33.15 23.34 41.59 17.55 50.02 23.34 41.59 29.13 33.15 23.34 33.15 23.34"/>
      <polygon class="cls-7" points="32.72 29.45 32.65 23.34 41.6 29.52 41.6 29.48 50.56 23.3 50.5 29.4 41.62 36.71 41.6 36.76 32.72 29.45 32.72 29.45"/>
      <polygon class="cls-3" points="21.62 43.98 18.72 34.18 26.83 27.95 29.73 37.76 21.62 43.98 21.62 43.98"/>
      <polygon class="cls-7" points="27.3 46.29 21.47 44.46 30.11 37.86 30.07 37.85 26.96 27.42 32.75 29.36 36.96 40.07 37 40.1 27.3 46.29 27.3 46.29"/>
      <polygon class="cls-1" points="37.7 61.33 27.47 61.06 24.05 51.42 34.28 51.69 37.7 61.33 37.7 61.33"/>
      <polygon class="cls-7" points="41.64 56.65 38.11 61.62 34.49 51.37 34.47 51.4 23.59 51.13 27.23 46.23 38.71 45.54 38.76 45.51 41.64 56.65 41.64 56.65"/>
      <polygon class="cls-1" points="59.16 51.41 55.74 61.05 45.52 61.32 48.94 51.68 59.16 51.41 59.16 51.41"/>
      <polygon class="cls-7" points="55.92 46.21 59.56 51.11 48.7 51.37 48.72 51.4 45.1 61.67 41.57 56.69 44.45 45.56 44.44 45.51 55.92 46.21 55.92 46.21"/>
      <polygon class="cls-3" points="56.36 27.92 64.47 34.15 61.57 43.96 53.45 37.73 56.36 27.92 56.36 27.92"/>
      <polygon class="cls-7" points="50.41 29.4 56.19 27.45 53.09 37.87 53.12 37.86 61.77 44.47 55.95 46.29 46.25 40.11 46.2 40.1 50.41 29.4 50.41 29.4"/>
      <path class="cls-5" d="M41.61,16.9c13.64,0,24.71,11.06,24.71,24.71s-11.06,24.71-24.71,24.71c-13.64,0-24.71-11.06-24.71-24.71s11.06-24.71,24.71-24.71h0Z"/>
      <path class="cls-6" d="M41.61,10.44c17.21,0,31.17,13.96,31.17,31.17s-13.96,31.17-31.17,31.17-31.17-13.96-31.17-31.17,13.96-31.17,31.17-31.17h0ZM41.61.51c22.7,0,41.1,18.41,41.1,41.1s-18.41,41.1-41.1,41.1S.51,64.3.51,41.61,18.91.51,41.61.51h0Z"/>
      <path class="cls-4" d="M24.51,71.87h-.12s-.28,0-.28,0l-.18.03-.14.07-.11.06s-.18.15-.39.37l-.07.12c-.04.07-.07.14-.09.19-.04.09-.07.15-.08.2,0,.05-.02.13-.03.24l-.02.28-1.74-.99.22.51,4.07,2.35-.21-.51-1.9-1.1v-.15s-.04-.11-.04-.11c0-.17.04-.35.12-.55l.1-.14s.06-.08.1-.11l.14-.09c.06-.04.12-.06.19-.08l.07.11.06.07.19.2.2.14s.08.02.08.02l.04.03s.05.01.05.01h.03c.14.05.25.01.32-.11l.04-.11s0-.08,0-.14l.03-.12v-.11s-.01-.27-.01-.27c0-.08-.03-.16-.07-.25l-.07-.43-.14-.55c-.03-.12-.09-.28-.18-.49-.2-.47-.46-.87-.76-1.19l-.16.02c.12.18.23.38.33.59l.15.31c.03.06.07.18.13.34.2.56.3,1,.3,1.32h-.15ZM22.78,68.97l-.14-.58-2.38,3.28-.96-.7.16.53,2,1.46-.16-.53-.67-.49,2.15-2.96h0ZM18.43,70.25l-1.46-1.18.13.54,2.48,2.01-.12-.53-.39-.31,1.12-1.38c.12-.23.11-.51-.02-.85-.03-.07-.12-.22-.27-.44-.13-.16-.26-.29-.4-.4-.37-.3-.75-.45-1.14-.46l-.25.26.31,2.74h0ZM18.4,67.59c.3.02.59.11.87.27.09.05.17.11.25.17.22.18.36.35.41.53.03.1.04.2.03.29-.01.09-.05.17-.1.24l-1.14,1.4-.32-2.9h0ZM17.94,65.16c-.09-.14-.2-.28-.34-.42l-.2-.21c-.13-.1-.32-.24-.57-.43l-.42-.24-.38-.17-.06.43.4.17.36.2.34.24.27.25c.14.13.25.3.33.49.09.21.12.41.1.59-.01.14-.05.28-.1.42l-.03.07-.06.07c-.2.19-.46.23-.79.14-.35-.1-.72-.32-1.09-.65-.13-.12-.27-.25-.41-.4l-.88.85-1.29-1.38.04.54,3.31,3.55-.04-.54-1.74-1.87.72-.64.08.07.06.08.04.04.02.03.02.02c.21.23.42.4.64.53.38.23.73.29,1.06.18.19-.07.34-.16.46-.28l.15-.15.13-.19c.24-.43.2-.89-.11-1.38h0ZM19.24,63.78l-2.03-.33.06-1.93-.24-.1-.14,2.31,2.39.39-.04-.34h0ZM13.28,65.83c-.06.15-.14.31-.23.47-.08.13-.18.24-.3.33-.08.06-.15.1-.22.12-.13.06-.27.04-.41-.04-.06-.04-.13-.1-.2-.18-.1-.12-.16-.26-.2-.4-.04-.14-.06-.32-.05-.51,0-.17.04-.39.11-.66.05-.21.14-.46.27-.72l.78,1-.02-.56-.49-.62,2.9-2.26v-.59s-3.18,2.49-3.18,2.49l-.75-.96v.55s.54.68.54.68c-.33.59-.5,1.16-.49,1.7,0,.23.03.44.09.63.1.25.2.43.28.54.18.23.41.38.69.43.28.05.52-.01.74-.18l.16-.16.14-.17c.04-.05.08-.12.12-.21l.1-.25-.37-.45h0ZM12.85,61.25c.11-.17.16-.36.17-.56v-.25s0-.34,0-.34c-.03-.14-.06-.23-.09-.3l-.15-.28c-.06-.12-.17-.25-.31-.38-.15-.13-.29-.22-.42-.27l-.18-.07-.23-.07,1.13-.71.05-.58-3.43,2.15-.64-1.03-.05.55,2.6,4.16.05-.55-.57-.91c.27-.36.51-.6.75-.75.35-.22.61-.19.78.09.08.13.13.29.15.49.17-.11.3-.23.39-.38h0ZM12.55,60.91l-.03-.07-.02-.07-.04-.06c-.14-.22-.39-.29-.76-.19-.13.05-.24.1-.34.16-.14.09-.27.2-.41.34-.13.14-.26.29-.37.44l-.93-1.48,1.69-1.05c.1.01.21.05.34.11l.33.21c.06.04.16.13.31.27l.23.31.1.17c.03.08.07.22.1.41,0,.09,0,.19-.04.28-.03.1-.08.19-.15.29v-.08h0ZM8.04,53.43c.54-.15.76-.59.65-1.31-.01-.08-.03-.16-.05-.25-.07-.23-.14-.41-.23-.55-.09-.13-.2-.26-.34-.37l1.59-.46.21-.54-3.91,1.12-.3-1.06-.21.5,1.28,4.45.2-.51-.19-.65,1.31-.37h0ZM6.6,53.36l-.53-1.84,1.6-.46c.14.04.28.14.42.33l.16.26.11.3c.05.15.07.3.05.47-.02.17-.08.31-.17.42-.08.06-.16.11-.26.14l-1.4.4h0ZM7.34,47.44l-.08-.09-.17-.22-.14-.12-.14-.06-.12-.05s-.23-.05-.53-.07l-.14.02c-.08.01-.15.03-.21.05-.1.02-.16.04-.21.06-.04.02-.11.07-.2.13l-.23.16-.32-1.98-.26.49.74,4.64.26-.49-.34-2.17.1-.1.07-.09c.13-.11.3-.19.5-.25h.17c.05-.02.1-.01.15,0l.16.05c.07.02.13.06.18.09l-.04.12-.02.09-.03.28v.24s.03.06.04.07v.05s.03.04.03.05v.03c.07.14.17.19.3.17l.12-.04s.07-.04.11-.09l.11-.05.09-.07.2-.18c.06-.05.11-.12.15-.22l.3-.33.34-.45c.07-.1.16-.25.27-.45.24-.45.39-.9.45-1.34l-.12-.11c-.07.21-.15.42-.25.62l-.15.31c-.03.06-.09.17-.18.32-.31.51-.59.86-.84,1.06l-.09-.12h0ZM4.61,46.49c-.14.09-.29.18-.45.25-.14.06-.29.1-.43.11-.1,0-.19,0-.25-.03-.14-.02-.25-.11-.32-.26-.03-.07-.05-.15-.07-.26,0-.15,0-.3.05-.45.05-.14.13-.3.24-.45.1-.13.25-.3.46-.49.16-.15.37-.3.63-.45l.09,1.27.3-.48-.05-.79,3.67-.26.34-.49-4.04.28-.08-1.21-.3.46.06.86c-.61.3-1.06.68-1.36,1.14-.12.19-.22.38-.28.57-.06.27-.08.47-.07.61.02.3.13.54.33.74.2.2.44.28.72.27l.22-.04.21-.07c.06-.02.13-.06.22-.11l.22-.14-.05-.58h0ZM5.73,38.36l.24.4.13.28.08.32.02.31c0,.16-.04.34-.1.53-.04.15-.11.34-.22.59-.13-.49-.35-.74-.66-.75-.05,0-.08,0-.12,0-.03,0-.06.02-.1.04l-.1.06s-.08.04-.11.08c-.08.08-.15.16-.2.25l-.19.35-.07.21-.03.2c0,.28.07.54.24.77.17.23.37.35.6.36.27,0,.49-.15.65-.48.04-.08.09-.22.14-.42.12.38.25.66.4.82.08.09.16.16.25.21.07.03.15.05.25.07.29,0,.55-.17.77-.54.12-.21.21-.41.27-.6.06-.19.09-.42.1-.68l.22-.11.18-.11.26-.16c.05-.05.08-.1.08-.14l-.02-.22-.18.14-.2.13-.2.11-.2.09-.16-.7-.11-.05-.14-.02c-.13,0-.24.07-.34.22l-.04.1-.04.14.02.25.07.19c.03.05.07.09.12.12.04.03.11.05.2.06h.08s.05-.01.05-.01v.34c-.03.13-.09.32-.17.58-.1.23-.23.34-.4.33-.09,0-.19-.05-.31-.14-.06-.04-.14-.12-.24-.25-.03-.03-.07-.09-.12-.17l-.26-.46.13-.22.09-.19c.15-.31.24-.66.25-1.04v-.1c0-.06,0-.13,0-.19l-.04-.29-.02-.1-.03-.1-.07-.2-.1-.2-.56-.02h0ZM4.82,38.22l-.35.44-.05,1.34.35-.38.05-1.39h0ZM4.6,41.18c0-.11.02-.19.05-.26.03-.16.13-.28.28-.35.08-.03.16-.05.25-.04h.05s.03-.01.03-.01c.21,0,.35.13.44.38l.03.15.02.21-.12.31-.14.23c-.09.16-.22.24-.38.24h-.08s-.08-.05-.08-.05l-.07-.05-.07-.07c-.17-.18-.24-.4-.23-.68h0ZM8.54,38.45l.43-.42-4.03-.35.1-1.18-.37.41-.22,2.47.37-.41.07-.83,3.65.32h0ZM5.19,35.54l.22-1.24,1.87.33c.12.04.2.12.25.23l.04.16-.02.18-.03.15s-.03.05-.05.1c-.07.15-.19.27-.36.36-.07.02-.14.03-.21.02l-1.71-.3h0ZM6.73,36.29c.31.05.58-.09.82-.43l.15-.22.17-.31.02-.03.02-.07.03-.09v-.08c.05-.2.02-.39-.08-.56-.1-.17-.2-.27-.31-.32l-2.05-.36.16-.89-.41.38-.65,3.67.41-.37.11-.62,1.62.29h0ZM9.52,32.99l.5-.32-3.87-1.18.35-1.13-.45.32-.73,2.37.45-.32.24-.8,3.5,1.07h0ZM12.05,25.54c.04-.19.02-.38-.05-.56-.07-.18-.19-.32-.35-.41-.07-.04-.14-.07-.21-.08-.07-.02-.14-.02-.21,0l.06-.05.05-.07.05-.06.04-.07.09-.21.08-.29.03-.04.02-.06,1.47.85.59-.21-3.52-2.03.58-1.01-.52.23-1.17,2.03.49-.18.37-.64,1.3.75.04.17v.18s-.03.11-.03.11l-.04.08-.03.09-.05.08-.07.13s-.05.07-.08.11l-.09.11-.08.06-.2.05c-.11.03-.23.11-.35.23l-.15.2c.06-.27.06-.49,0-.66-.08-.21-.18-.34-.3-.41-.19-.11-.42-.1-.7.02-.2.1-.39.27-.58.51-.05.07-.11.16-.17.27-.03.05-.07.14-.13.25l-.12.26-.1.31c-.02.07-.05.17-.08.32h.43l.1-.45.08-.33.08-.25.1-.2c.04-.08.09-.15.16-.21.1-.12.22-.18.38-.19l.26.04c.18.11.27.31.25.61-.02.24-.07.46-.15.66-.02.04-.05.11-.1.2l-.06.1s-.05.05-.05.05l.36.1.04-.06s.02-.08.02-.08l.04-.08.05-.1c.06-.12.15-.26.3-.41.26-.27.52-.42.76-.44.13,0,.24.01.34.07.05.03.1.07.13.11l.1.14.1.21c.02.05.04.12.04.21l-.03.23-.1.22c-.07.11-.16.23-.28.33-.2.18-.51.33-.95.43-.22.05-.46.09-.72.1l.1.19c.57.07,1.05,0,1.44-.21.26-.14.47-.35.62-.61l.07-.12.02-.05.03-.06v-.04c.1-.18.16-.33.19-.44h0ZM14.32,22.76l.58-.14-3.28-2.38.7-.96-.53.16-1.46,2,.53-.16.49-.67,2.96,2.15h0ZM9.61,20.5c-.3.18-.66.51-1.06.99l-.23.27.45.24.11-.19.09-.17.11-.18.13-.18c.23-.31.51-.55.82-.7.4-.2.8-.27,1.23-.2l.11-.14c-.63-.15-1.21-.06-1.76.27h0ZM11.3,19.83c-.62-.2-1.17-.28-1.65-.22-.56.06-1,.29-1.32.69-.06.08-.11.14-.13.19l-.11.18.34.21.19-.27c.13-.19.32-.35.55-.48.41-.22.9-.3,1.48-.23.28.03.55.1.83.2l.11-.18-.3-.1h0ZM15.3,18.86l.02-.12.06-.27v-.18s-.04-.15-.04-.15l-.04-.12c-.01-.05-.11-.21-.28-.46l-.1-.09c-.06-.06-.12-.1-.17-.13-.08-.06-.14-.1-.18-.12-.04-.02-.12-.05-.23-.08l-.27-.08,1.33-1.49-.55.11-3.14,3.49.54-.1,1.47-1.63.15.02h.12c.16.03.34.11.51.23l.12.13s.07.07.09.12l.06.15c.02.07.04.13.04.2l-.12.04-.08.04-.24.15-.18.16s-.04.07-.04.07l-.03.04s-.02.05-.02.05l-.02.03c-.07.13-.05.24.05.33l.1.07s.08.02.14.03l.11.06.1.02.26.04c.07.01.16,0,.26-.02l.44.03.56-.02c.12,0,.3-.03.52-.08.5-.1.94-.27,1.33-.49v-.16c-.19.08-.41.14-.63.2l-.34.08c-.07.02-.19.03-.36.06-.59.08-1.04.08-1.36.02l.04-.14h0ZM22.78,13.79c.11-.16.18-.33.19-.52.01-.19-.04-.37-.15-.52-.05-.07-.1-.12-.15-.16-.06-.05-.12-.08-.19-.09l.08-.02.07-.04.07-.03.06-.04.17-.15.2-.23.04-.03.04-.05.98,1.39.63.05-2.33-3.33.96-.67h-.57s-1.91,1.33-1.91,1.33l.52.04.61-.42.86,1.23-.04.17-.08.16-.07.09-.06.06-.07.07-.08.05-.12.08s-.07.04-.12.06l-.13.06-.1.03-.2-.04c-.11-.02-.25,0-.42.07l-.22.12c.17-.22.26-.42.27-.6.01-.22-.02-.39-.1-.5-.13-.18-.34-.27-.64-.27-.22,0-.47.08-.74.22-.08.04-.17.1-.27.17-.05.04-.13.1-.22.18l-.22.18-.22.24c-.05.05-.12.14-.21.26l.39.18.28-.37.21-.26.18-.19.17-.14c.07-.06.15-.1.23-.12.14-.07.28-.07.42-.01l.21.14c.12.17.11.39-.03.65-.12.21-.26.39-.42.54-.03.03-.09.08-.18.14l-.09.06s-.07.03-.07.03l.29.24.06-.03s.05-.05.05-.06l.06-.06.09-.07c.1-.08.25-.17.44-.25.35-.14.65-.16.88-.08.12.05.22.11.28.2.04.05.06.11.07.16l.03.17v.23c0,.06-.02.13-.05.21l-.13.19-.18.16c-.11.08-.24.14-.4.18-.26.08-.6.08-1.04-.02-.22-.04-.45-.11-.7-.22v.21c.5.31.97.45,1.41.42.3-.02.57-.12.82-.29l.11-.08.04-.04.05-.05.03-.03c.16-.12.27-.23.34-.32h0ZM21.87,8.73l.62.14.21-.58-.63-.15-.2.59h0ZM25.94,8.22c.33.04.6.13.81.27.22.15.39.32.49.53.17.34.21.72.11,1.13-.1.41-.28.68-.53.81l1.17.36-.16.26-1.36-.42-.19.16-.14.08c-.25.14-.42.13-.51-.05l-.03-.11c-.03-.12-.01-.22.06-.3.04-.04.1-.09.19-.14l.15-.05c.12-.02.22,0,.3.07l.15.13c.29-.18.46-.47.52-.85v-.23s-.02-.29-.02-.29l-.02-.16-.02-.18-.07.14-.17.26-.28.31-.17.15c-.06.03-.09.05-.11.07l-.07.04c-.39.2-.75.2-1.09,0-.09-.07-.16-.15-.21-.25-.12-.23-.1-.51.04-.85.04-.1.11-.23.21-.39l-1.19.6-.55-.11,3.45-1.76.55.11-1.3.66h0ZM25.09,9.12c-.07.21-.08.4-.04.57.01.05.03.11.07.17l.1.13c.11.07.27.09.5.06.12-.01.21-.04.29-.08l.16-.11.15-.16.06-.1.06-.11.05-.15.07-.27v-.14s-.04-.15-.04-.15c-.06-.11-.15-.2-.29-.27-.13-.07-.27-.1-.4-.09-.1.01-.18.03-.24.06-.24.12-.41.33-.5.62h0ZM29.46,10.69l.57.19-1.52-3.75,1.1-.44-.53-.15-2.3.93.53.15.77-.31,1.37,3.4h0ZM31.88,6.04c.32.1.57.25.75.42.19.19.32.39.38.61.11.37.07.74-.11,1.13-.17.38-.4.61-.68.69l1.08.58-.2.22-1.26-.67-.21.12-.15.05c-.27.09-.43.05-.49-.15v-.11c-.02-.12.02-.22.1-.28.04-.03.11-.07.21-.11l.16-.02c.12,0,.22.04.29.12l.13.16c.32-.13.54-.37.67-.74l.05-.23.03-.29v-.16s.02-.18.02-.18l-.1.12-.22.23-.33.26-.2.11c-.06.02-.1.03-.12.05l-.07.02c-.42.12-.78.05-1.07-.2-.07-.09-.12-.18-.15-.29-.07-.25,0-.52.2-.83.06-.09.15-.2.28-.34l-1.28.37-.52-.21,3.72-1.07.52.21-1.41.4h0ZM30.87,6.76c-.11.19-.15.38-.14.55,0,.05.01.11.03.18l.07.15c.09.09.25.15.47.16.12,0,.22,0,.3-.02l.17-.08.18-.13.07-.08.08-.09.08-.14.12-.25.03-.13-.02-.16c-.03-.12-.11-.23-.23-.32-.12-.09-.24-.14-.37-.16-.1,0-.18,0-.24.02-.26.07-.46.25-.6.51h0ZM34.9,9.04l.51.31-.63-4,1.17-.18-.49-.26-2.45.39.49.26.82-.13.57,3.62h0ZM36.86,8.72l.5.33-.49-4.02,1.18-.14-.48-.28-2.46.3.48.28.83-.1.45,3.63h0ZM33.12,3.53h.04s.03,0,.03,0h.09c.45-.07,1.03.07,1.76.4.67.3,1.12.63,1.37.97l.26-.04c-.15-.21-.34-.41-.59-.61-.24-.2-.54-.4-.88-.58-.8-.44-1.53-.63-2.21-.54l.11.42h0ZM40.56,6.11l-.25.03h-.14c-.41.04-.74-.06-.99-.28-.09-.08-.19-.19-.28-.33l.2.09.22.04h.08s.07,0,.07,0c.33-.02.54-.15.64-.39.02-.07.04-.15.04-.25-.01-.16-.08-.29-.2-.39-.15-.13-.39-.18-.7-.16-.53.04-.78.27-.75.71,0,.09.02.16.03.21l.07.23c.05.16.23.35.52.56l.18.13.26.15c-.24.14-.44.31-.58.51l-.11.21-.02.22.04.18.08.16.02.02.02.02.03.02c.08.07.17.14.28.2.1.04.2.09.32.12l.32.06h.33c.24,0,.53-.07.87-.23.06-.03.16-.08.31-.17l.21-.14.29-.22-.05-.76c-.07.12-.16.24-.27.35-.13.13-.25.24-.37.33l-.17.12-.22.15c-.36.16-.65.25-.87.27-.26.02-.45-.07-.57-.27v-.03s-.02-.03-.02-.03l-.02-.1-.02-.15c-.02-.16.02-.29.11-.4.1-.1.29-.21.56-.31l.4-.07.41-.08-.17-.35-.13.03h0ZM40.23,4.42l.46.3.93-.06-.44-.31-.94.07h0ZM39.44,4.68c.15,0,.26.06.32.17.02.04.04.1.06.18,0,.05,0,.1-.03.13l-.06.11s-.08.07-.13.09l-.19.03h-.19c-.14,0-.26-.06-.36-.15l-.13-.17.02-.12.12-.12.07-.05.08-.04.08-.02h.08c.05-.02.09-.03.13-.03h.08s.04,0,.04,0h0ZM41.99,8.4l.45.4.07-4.05,1.19.02-.43-.34-2.48-.04.43.34h.83s-.06,3.68-.06,3.68h0ZM44.18,4.73l3.23.4-.13,1.1-2.36-.29c-.12-.02-.23-.02-.33,0-.23,0-.37.08-.42.26-.02.13.04.29.17.49l.12.19.18.17.07.03h.08s.05,0,.05,0h.04s.06-.03.06-.03l.07-.04s.03-.04.03-.06l.16-.37s.02-.04.02-.05l.04-.03.06-.04.12-.06.09-.02,1.7.2-.28,2.25.43.41.5-4.04,1.23.15-.38-.38-5.02-.62.45.39h0ZM53.99,8.3c-.2.52.02.96.66,1.31.07.04.15.08.23.11.23.09.42.13.58.14.16,0,.33,0,.5-.05l-.59,1.54.31.5,1.46-3.8,1.03.39-.27-.46-4.33-1.66.29.47.63.24-.49,1.27h0ZM54.91,7.2l1.79.69-.6,1.56c-.11.09-.29.14-.51.14l-.3-.02-.31-.09c-.15-.04-.28-.13-.4-.24-.12-.12-.2-.24-.23-.39,0-.1.01-.19.05-.29l.52-1.36h0ZM56.15,10.1l-2.98.26.19.42,2.6-.31.18-.36h0ZM57.72,10.75c0,.2.03.4.12.58l.11.23.18.29c.09.1.17.17.23.21l.27.18c.12.08.27.14.46.18.19.04.35.05.5.03l.19-.02.24-.06-.65,1.17.23.53,1.96-3.54,1.06.59-.22-.51-4.29-2.38.22.51.94.52c-.06.44-.16.78-.29,1.02-.2.36-.44.46-.73.3-.13-.07-.26-.19-.37-.35-.1.17-.15.35-.15.52h0ZM58.16,10.91l.06.04.05.05.07.04c.23.13.48.06.76-.2.09-.1.16-.2.22-.31.08-.14.14-.31.19-.5.05-.19.09-.38.11-.57l1.53.85-.96,1.74c-.09.04-.21.06-.35.06l-.39-.02c-.07,0-.2-.03-.4-.09l-.36-.16-.17-.1c-.07-.06-.16-.16-.29-.31-.05-.08-.08-.17-.1-.27-.02-.1-.02-.21-.01-.33l.04.06h0ZM61.05,14.69l.15.58,2.32-3.32.97.68-.17-.53-2.03-1.42.17.53.68.48-2.1,3h0ZM62.13,8.36l.03.03h.03s.07.07.07.07c.36.28.67.79.95,1.53.26.68.35,1.24.28,1.66l.21.15c.04-.25.05-.53.02-.85-.03-.32-.1-.66-.21-1.03-.25-.88-.64-1.53-1.18-1.94l-.22.38h0ZM64.05,15.89l.28-.15.33-.27.35-.36.36-.41s.06-.08.09-.14l.11-.13c.04-.07.06-.11.07-.13l.27-.4,1.14.99-2.42,2.79.12.57,2.66-3.06.98.85-.11-.54-3.67-3.19v.46s.99.85.99.85l-1.18,1.36-.47-.41h-.12s-.05,0-.09.04l-.04.04v.04s-.02.02-.02.02v.02s-.01.04-.01.04v.85l.04.15s.03.05.07.08l.05.04.04.02s.11,0,.19-.03h0ZM69.86,17.99c.04.33.03.62-.05.86-.09.25-.21.46-.38.61-.28.26-.64.39-1.06.4-.42,0-.73-.09-.92-.31l-.05,1.22-.29-.09.06-1.43-.2-.14-.12-.12c-.2-.2-.23-.37-.08-.5l.09-.06c.11-.06.21-.07.31-.02.05.03.11.08.19.14l.08.13c.05.11.06.22.01.31l-.09.18c.25.23.57.32.96.28l.23-.05.27-.1.15-.06.17-.07-.15-.04-.3-.1-.37-.18-.19-.13s-.07-.07-.1-.08l-.05-.06c-.29-.32-.39-.67-.29-1.05.05-.1.11-.19.19-.26.19-.17.47-.23.83-.18.11.01.25.05.43.1l-.89-.99-.04-.56,2.59,2.88.04.55-.98-1.09h0ZM68.77,17.4c-.22-.01-.41.03-.56.11-.05.03-.09.06-.15.11l-.1.13c-.04.12-.02.29.06.5.04.11.09.19.15.26l.15.12.2.1.11.03.12.03h.16s.28.01.28.01l.14-.03.13-.08c.09-.08.16-.2.19-.35.03-.15.02-.28-.02-.41-.04-.09-.08-.16-.12-.21-.18-.2-.42-.31-.73-.32h0ZM68.39,22.02l-.04.59,3.28-2.38.7.96v-.55s-1.44-2-1.44-2v.55s.48.67.48.67l-2.96,2.15h0ZM69.54,23.7l-.08.59,3.4-2.21.65,1,.04-.55-1.35-2.07-.04.55.45.7-3.07,2h0ZM71.65,25.25c.09-.18.19-.32.29-.44.1-.11.2-.19.3-.24.29-.16.54-.12.77.11.08.08.15.18.2.27.16.31.21.68.15,1.11h-.03s-.05-.02-.05-.02l-.15-.06-.17-.06-.07.46.45.1.38.12c.21.09.37.23.47.42l.03.06.04.1-2.1,1.11-.11.61,3.58-1.9.54,1.01.09-.55-2.6-4.88-.15.43,1.89,3.55-.81.43c-.09-.17-.19-.32-.28-.44-.09-.12-.18-.19-.26-.22l-.24-.09-.22-.09.05-.29.02-.28v-.25s-.08-.35-.08-.35c-.02-.06-.03-.12-.05-.19l-.06-.12c-.15-.27-.35-.45-.62-.54-.27-.09-.53-.06-.8.08-.38.2-.67.59-.88,1.17-.11.31-.2.75-.25,1.31l.27-.05c.09-.55.24-1.02.45-1.42h0ZM72.91,30.41l-.22.56,3.83-1.32.39,1.12.17-.52-.81-2.34-.17.52.27.79-3.46,1.19h0ZM76.65,35.62c-.56.08-.83.48-.83,1.21,0,.08,0,.17.02.26.03.24.08.43.15.57.07.14.16.28.29.42l-1.64.23-.28.51,4.03-.57.15,1.09.27-.46-.64-4.59-.27.48.09.66-1.35.19h0ZM78.06,35.89l.27,1.9-1.65.23c-.13-.06-.26-.18-.37-.38l-.13-.28-.07-.31c-.03-.15-.03-.31.02-.47.04-.16.12-.29.23-.39.08-.05.18-.09.27-.1l1.44-.2h0ZM76.13,38.24l-1.8-2.39-.25.38,1.65,2.04.4-.03h0ZM75.63,40.79c.15-.11.3-.19.45-.25.15-.06.28-.09.38-.1.32-.01.55.18.7.58l.07,1.73h.37s-.07-2.1-.07-2.1c-.04-.16-.08-.29-.13-.37-.13-.31-.38-.45-.74-.44-.24,0-.52.1-.82.29-.3.18-.59.44-.86.77-.19.23-.37.48-.52.75l.16.11c.41-.47.76-.8,1.02-.98h0ZM78.4,39.46l.12,3.58.32-.43-.12-3.57-.32.42h0ZM76.37,43.28c-.19.08-.35.2-.47.36l-.16.19-.18.29c-.05.13-.09.23-.1.29l-.05.32c-.02.14-.01.3.03.49.04.19.1.34.18.46l.1.16.15.19-1.33-.09-.38.44,4.04.28-.08,1.21.36-.41.34-4.9-.36.41-.07,1.07c-.42.13-.77.19-1.05.17-.41-.03-.61-.2-.58-.53,0-.15.06-.31.16-.49-.2-.01-.38.01-.54.08h0ZM76.41,43.74v.08s-.04.07-.04.07v.08c-.02.26.14.46.5.6.13.04.26.06.38.07.16.01.34,0,.53-.04.19-.04.38-.08.56-.14l-.12,1.74-1.98-.14c-.07-.07-.14-.16-.2-.29l-.15-.36c-.02-.06-.05-.2-.09-.4v-.39s0-.2,0-.2c.02-.08.08-.22.16-.39.05-.08.12-.15.2-.21.08-.06.18-.11.29-.15l-.04.07h0ZM74.2,47.99l-.45.39,4,.63-.19,1.17.4-.38.39-2.44-.4.38-.13.82-3.62-.57h0ZM75.46,50.04c-.2.04-.38.12-.54.25l-.2.16-.24.25c-.08.11-.13.2-.16.27l-.11.3c-.05.13-.07.29-.07.48s.03.36.08.49l.07.18.11.22-1.28-.37-.47.35,3.89,1.12-.33,1.17.44-.33,1.35-4.72-.44.33-.3,1.03c-.44.04-.79.02-1.06-.05-.4-.11-.55-.33-.46-.64.04-.14.13-.29.26-.44-.19-.05-.37-.07-.54-.03h0ZM75.41,50.5l-.03.07-.03.06-.02.07c-.07.25.05.49.37.7.12.06.24.11.35.15.15.04.33.07.53.07.2,0,.39,0,.58-.02l-.48,1.68-1.91-.55c-.05-.08-.1-.19-.14-.33l-.07-.39c0-.07-.01-.21,0-.41l.07-.38.06-.19c.04-.08.12-.2.24-.35.07-.06.14-.12.24-.16.09-.04.2-.07.31-.08l-.05.06h0ZM75.81,55.69l-1.48,2.9-.99-.5,1.08-2.11c.06-.11.1-.22.12-.31.08-.22.05-.38-.1-.49-.11-.06-.29-.06-.52,0l-.22.05-.22.11-.05.05-.04.08s0,.05,0,.05v.04s0,.06,0,.06l.02.08s.02.04.05.05l.29.28s.04.04.04.04v.05s.03.07.03.07l.02.13v.09s-.78,1.53-.78,1.53l-2.02-1.03-.53.27,3.62,1.85-.56,1.1.49-.22,2.29-4.5-.52.29h0ZM65.86,64.23l-.56.13,3.06,2.66-.82.95.54-.11,3.26-3.75-.54.11-2.13,2.45-.89-.77c.19.03.41,0,.66-.1.17-.07.33-.18.48-.33.04-.04.07-.08.09-.1.29-.33.46-.7.53-1.12.07-.42,0-.72-.2-.9-.45-.39-.96-.41-1.55-.06-.17.11-.33.24-.46.4l-.15.19-.13.21-.06.11-.05.11c-.07.15-.12.34-.14.55,0,.04,0,.1,0,.19l-.93-.81h0ZM69.08,64.69l-.1.24-.15.22c-.1.11-.18.19-.25.24-.07.05-.18.1-.33.16l-.32.09-.36.04-.45-.39-.04-.17v-.18s-.01-.09-.01-.09v-.07s.02-.08.02-.08l.03-.07,1.95.06h0ZM69.03,63.63c.05.08.1.19.15.32.04.12.05.26.02.39l-1.92-.04.12-.26.16-.21c.1-.13.23-.23.4-.3.14-.07.3-.1.47-.11l.2.02.26.06s.06.04.08.05l.07.08h0ZM64.33,65.77l-.6.04,2.81,2.91-.85.82.55-.06,1.78-1.72-.55.06-.6.58-2.54-2.63h0ZM70.37,67.87l-.04.02-.02.03-.07.06c-.34.3-.89.53-1.67.67-.72.14-1.28.13-1.69,0l-.19.18c.24.09.52.14.83.16.32.02.67.02,1.05-.02.91-.09,1.62-.37,2.12-.82l-.33-.28h0ZM62.31,67.79c-.22.01-.43.05-.62.1-.21.08-.38.17-.52.27-.33.24-.54.54-.61.89-.07.35-.01.66.18.92.22.31.53.41.93.31l.23-.09.3-.17c.06-.04.1-.08.13-.12l.18-.13.21-.15c.05-.02.09-.04.11-.06.24-.12.42-.16.55-.12.05.02.1.07.16.15.07.09.07.19,0,.31l-.02.02-.03.04-.03.03-.03.06-1.7,1.23.64.8-1.04.75h.56s4.25-3.08,4.25-3.08h-.55s-2.86,2.07-2.86,2.07l-.41-.57,1.52-1.1s.08-.07.1-.11l.06-.14.02-.06v-.08c0-.06,0-.11-.01-.16l-.08-.16-.08-.11c-.05-.05-.16-.1-.33-.17-.09-.03-.19-.05-.28-.06l-.31.02-.06.02-.51.37-.04.04-.35.23c-.06.04-.12.06-.17.08-.13.07-.27.09-.43.07-.08,0-.15-.03-.23-.07l-.03-.03-.04-.02-.03-.04-.05-.04c-.03-.13-.02-.28.02-.45.04-.17.11-.33.2-.47l.07-.1.07-.09.09-.13.1-.11c.22-.12.46-.2.71-.24.3-.04.59-.03.88.02l.36.08.46.15.09-.25c-.61-.26-1.18-.37-1.7-.34h0ZM62.65,72.75l.39.16c.23.12.39.26.49.4.1.15.12.3.06.46-.05.14-.15.26-.3.36-.31.2-.67.23-1.08.08l-.05.3.48.1.21.02h.21c.24-.01.46-.07.64-.2.1-.07.18-.14.23-.23.1-.14.15-.3.13-.49-.01-.17-.07-.33-.17-.48-.07-.11-.15-.2-.21-.27-.3-.27-.68-.46-1.13-.58l-.38.26c.21.03.38.07.5.12h0Z"/>
      <path class="cls-7" d="M24.51,71.87h-.12s-.28,0-.28,0l-.18.03-.14.07-.11.06s-.18.15-.39.37l-.07.12c-.04.07-.07.14-.09.19-.04.09-.07.15-.08.2,0,.05-.02.13-.03.24l-.02.28-1.74-.99.22.51,4.07,2.35-.21-.51-1.9-1.1v-.15s-.04-.11-.04-.11c0-.17.04-.35.12-.55l.1-.14s.06-.08.1-.11l.14-.09c.06-.04.12-.06.19-.08l.07.11.06.07.19.2.2.14s.06.02.08.02l.04.03s.04.01.05.01h.03c.14.05.25.01.32-.11l.04-.11s0-.08,0-.14l.03-.12v-.11s-.01-.27-.01-.27c0-.08-.03-.16-.07-.25l-.07-.43-.14-.55c-.03-.12-.09-.28-.18-.49-.2-.47-.46-.87-.76-1.19l-.16.02c.12.18.23.38.33.59l.15.31c.03.06.07.18.13.34.2.56.3,1,.3,1.32h-.15Z"/>
      <polygon class="cls-7" points="22.78 68.97 22.64 68.39 20.26 71.66 19.3 70.97 19.45 71.49 21.46 72.95 21.3 72.42 20.62 71.93 22.78 68.97 22.78 68.97"/>
      <path class="cls-7" d="M18.43,70.25l-1.46-1.18.13.54,2.48,2.01-.12-.53-.39-.31,1.12-1.38c.12-.23.11-.51-.02-.85-.03-.07-.12-.22-.27-.44-.13-.16-.26-.29-.4-.4-.37-.3-.75-.45-1.14-.46l-.25.26.31,2.74h0ZM18.4,67.59c.3.02.59.11.87.27.09.05.17.11.25.17.22.18.36.35.41.53.03.1.04.2.03.29-.01.09-.05.17-.1.24l-1.14,1.4-.32-2.9h0Z"/>
      <path class="cls-7" d="M17.94,65.16c-.09-.14-.2-.28-.34-.42l-.2-.21c-.13-.1-.32-.24-.57-.43l-.42-.24-.38-.17-.06.43.4.17.36.2.34.24.27.25c.14.13.25.3.33.49.09.21.12.41.1.59-.01.14-.05.28-.1.42l-.03.07-.06.07c-.2.19-.46.23-.79.14-.35-.1-.72-.32-1.09-.65-.13-.12-.27-.25-.41-.4l-.88.85-1.29-1.38.04.54,3.31,3.55-.04-.54-1.74-1.87.72-.64.08.07.06.08.04.04.02.03.02.02c.21.23.42.4.64.53.38.23.73.29,1.06.18.19-.07.34-.16.46-.28l.15-.15.13-.19c.24-.43.2-.89-.11-1.38h0Z"/>
      <polygon class="cls-7" points="19.24 63.78 17.21 63.45 17.27 61.52 17.03 61.42 16.89 63.73 19.28 64.12 19.24 63.78 19.24 63.78"/>
      <path class="cls-7" d="M13.28,65.83c-.06.15-.14.31-.23.47-.08.13-.18.24-.3.33-.08.06-.15.1-.22.12-.13.06-.27.04-.41-.04-.06-.04-.13-.1-.2-.18-.1-.12-.16-.26-.2-.4-.04-.14-.06-.32-.05-.51,0-.17.04-.39.11-.66.05-.21.14-.46.27-.72l.78,1-.02-.56-.49-.62,2.9-2.26v-.59s-3.18,2.49-3.18,2.49l-.75-.96v.55s.54.68.54.68c-.33.59-.5,1.16-.49,1.7,0,.23.03.44.09.63.1.25.2.43.28.54.18.23.41.38.69.43.28.05.52-.01.74-.18l.16-.16.14-.17c.04-.05.08-.12.12-.21l.1-.25-.37-.45h0Z"/>
      <path class="cls-7" d="M12.85,61.25c.11-.17.16-.36.17-.56v-.25s0-.34,0-.34c-.03-.14-.06-.23-.09-.3l-.15-.28c-.06-.12-.17-.25-.31-.38-.15-.13-.29-.22-.42-.27l-.18-.07-.23-.07,1.13-.71.05-.58-3.43,2.15-.64-1.03-.05.55,2.6,4.16.05-.55-.57-.91c.27-.36.51-.6.75-.75.35-.22.61-.19.78.09.08.13.13.29.15.49.17-.11.3-.23.39-.38h0ZM12.55,60.91l-.03-.07-.02-.07-.04-.06c-.14-.22-.39-.29-.76-.19-.13.05-.24.1-.34.16-.14.09-.27.2-.41.34-.13.14-.26.29-.37.44l-.93-1.48,1.69-1.05c.1.01.21.05.34.11l.33.21c.06.04.16.13.31.27l.23.31.1.17c.03.08.07.22.1.41,0,.09,0,.19-.04.28-.03.1-.08.19-.15.29v-.08h0Z"/>
      <path class="cls-7" d="M8.04,53.43c.54-.15.76-.59.65-1.31-.01-.08-.03-.16-.05-.25-.07-.23-.14-.41-.23-.55-.09-.13-.2-.26-.34-.37l1.59-.46.21-.54-3.91,1.12-.3-1.06-.21.5,1.28,4.45.2-.51-.19-.65,1.31-.37h0ZM6.6,53.36l-.53-1.84,1.6-.46c.14.04.28.14.42.33l.16.26.11.3c.05.15.07.3.05.47-.02.17-.08.31-.17.42-.08.06-.16.11-.26.14l-1.4.4h0Z"/>
      <path class="cls-7" d="M7.34,47.44l-.08-.09-.17-.22-.14-.12-.14-.06-.12-.05s-.23-.05-.53-.07l-.14.02c-.08.01-.15.03-.21.05-.1.02-.16.04-.21.06-.04.02-.11.07-.2.13l-.23.16-.32-1.98-.26.49.74,4.64.26-.49-.34-2.17.1-.1.07-.09c.13-.11.3-.19.5-.25h.17c.05-.02.1-.01.15,0l.16.05c.07.02.13.06.18.09l-.04.12-.02.09-.03.28v.24s.03.06.04.07v.05s.03.04.03.05v.03c.07.14.17.19.3.17l.12-.04s.07-.04.11-.09l.11-.05.09-.07.2-.18c.06-.05.11-.12.15-.22l.3-.33.34-.45c.07-.1.16-.25.27-.45.24-.45.39-.9.45-1.34l-.12-.11c-.07.21-.15.42-.25.62l-.15.31c-.03.06-.09.17-.18.32-.31.51-.59.86-.84,1.06l-.09-.12h0Z"/>
      <path class="cls-7" d="M4.61,46.49c-.14.09-.29.18-.45.25-.14.06-.29.1-.43.11-.1,0-.19,0-.25-.03-.14-.02-.25-.11-.32-.26-.03-.07-.05-.15-.07-.26,0-.15,0-.3.05-.45.05-.14.13-.3.24-.45.1-.13.25-.3.46-.49.16-.15.37-.3.63-.45l.09,1.27.3-.48-.05-.79,3.67-.26.34-.49-4.04.28-.08-1.21-.3.46.06.86c-.61.3-1.06.68-1.36,1.14-.12.19-.22.38-.28.57-.06.27-.08.47-.07.61.02.3.13.54.33.74.2.2.44.28.72.27l.22-.04.21-.07c.06-.02.13-.06.22-.11l.22-.14-.05-.58h0Z"/>
      <path class="cls-7" d="M5.73,38.36l.24.4.13.28.08.32.02.31c0,.16-.04.34-.1.53-.04.15-.11.34-.22.59-.13-.49-.35-.74-.66-.75-.05,0-.08,0-.12,0-.03,0-.06.02-.1.04l-.1.06s-.08.04-.11.08c-.08.08-.15.16-.2.25l-.19.35-.07.21-.03.2c0,.28.07.54.24.77.17.23.37.35.6.36.27,0,.49-.15.65-.48.04-.08.09-.22.14-.42.12.38.25.66.4.82.08.09.16.16.25.21.07.03.15.05.25.07.29,0,.55-.17.77-.54.12-.21.21-.41.27-.6.06-.19.09-.42.1-.68l.22-.11.18-.11.26-.16c.05-.05.08-.1.08-.14l-.02-.22-.18.14-.2.13-.2.11-.2.09-.16-.7-.11-.05-.14-.02c-.13,0-.24.07-.34.22l-.04.1-.04.14.02.25.07.19c.03.05.07.09.12.12.04.03.11.05.2.06h.08s.05-.01.05-.01v.34c-.03.13-.09.32-.17.58-.1.23-.23.34-.4.33-.09,0-.19-.05-.31-.14-.06-.04-.14-.12-.24-.25-.03-.03-.07-.09-.12-.17l-.26-.46.13-.22.09-.19c.15-.31.24-.66.25-1.04v-.1c0-.06,0-.13,0-.19l-.04-.29-.02-.1-.03-.1-.07-.2-.1-.2-.56-.02h0ZM4.82,38.22l-.35.44-.05,1.34.35-.38.05-1.39h0ZM4.6,41.18c0-.11.02-.19.05-.26.03-.16.13-.28.28-.35.08-.03.16-.05.25-.04h.05s.03-.01.03-.01c.21,0,.35.13.44.38l.03.15.02.21-.12.31-.14.23c-.09.16-.22.24-.38.24h-.08s-.08-.05-.08-.05l-.07-.05-.07-.07c-.17-.18-.24-.4-.23-.68h0Z"/>
      <polygon class="cls-7" points="8.54 38.45 8.96 38.03 4.93 37.68 5.03 36.5 4.66 36.9 4.44 39.37 4.82 38.96 4.89 38.13 8.54 38.45 8.54 38.45"/>
      <path class="cls-7" d="M5.19,35.54l.22-1.24,1.87.33c.12.04.2.12.25.23l.04.16-.02.18-.03.15s-.03.05-.05.1c-.07.15-.19.27-.36.36-.07.02-.14.03-.21.02l-1.71-.3h0ZM6.73,36.29c.31.05.58-.09.82-.43l.15-.22.17-.31.02-.03.02-.07.03-.09v-.08c.05-.2.02-.39-.08-.56-.1-.17-.2-.27-.31-.32l-2.05-.36.16-.89-.41.38-.65,3.67.41-.37.11-.62,1.62.29h0Z"/>
      <polygon class="cls-7" points="9.52 32.99 10.02 32.67 6.15 31.48 6.5 30.35 6.05 30.67 5.32 33.03 5.77 32.71 6.02 31.92 9.52 32.99 9.52 32.99"/>
      <path class="cls-7" d="M12.05,25.54c.04-.19.02-.38-.05-.56-.07-.18-.19-.32-.35-.41-.07-.04-.14-.07-.21-.08-.07-.02-.14-.02-.21,0l.06-.05.05-.07.05-.06.04-.07.09-.21.08-.29.03-.04.02-.06,1.47.85.59-.21-3.52-2.03.58-1.01-.52.23-1.17,2.03.49-.18.37-.64,1.3.75.04.17v.18s-.03.11-.03.11l-.04.08-.03.09-.05.08-.07.13s-.05.07-.08.11l-.09.11-.08.06-.2.05c-.11.03-.23.11-.35.23l-.15.2c.06-.27.06-.49,0-.66-.08-.21-.18-.34-.3-.41-.19-.11-.42-.1-.7.02-.2.1-.39.27-.58.51-.05.07-.11.16-.17.27-.03.05-.07.14-.13.25l-.12.26-.1.31c-.02.07-.05.17-.08.32h.43l.1-.45.08-.33.08-.25.1-.2c.04-.08.09-.15.16-.21.1-.12.22-.18.38-.19l.26.04c.18.11.27.31.25.61-.02.24-.07.46-.15.66-.02.04-.05.11-.1.2l-.06.1s-.03.05-.05.05l.36.1.04-.06s.02-.06.02-.08l.04-.08.05-.1c.06-.12.15-.26.3-.41.26-.27.52-.42.76-.44.13,0,.24.01.34.07.05.03.1.07.13.11l.1.14.1.21c.02.05.03.12.04.21l-.03.23-.1.22c-.07.11-.16.23-.28.33-.2.18-.51.33-.95.43-.22.05-.46.09-.72.1l.1.19c.57.07,1.05,0,1.44-.21.26-.14.47-.35.62-.61l.07-.12.02-.05.03-.06v-.04c.1-.18.16-.33.19-.44h0Z"/>
      <polygon class="cls-7" points="14.32 22.76 14.91 22.62 11.63 20.24 12.33 19.28 11.8 19.44 10.34 21.44 10.87 21.28 11.36 20.61 14.32 22.76 14.32 22.76"/>
      <path class="cls-7" d="M9.61,20.5c-.3.18-.66.51-1.06.99l-.23.27.45.24.11-.19.09-.17.11-.18.13-.18c.23-.31.51-.55.82-.7.4-.2.8-.27,1.23-.2l.11-.14c-.63-.15-1.21-.06-1.76.27h0ZM11.3,19.83c-.62-.2-1.17-.28-1.65-.22-.56.06-1,.29-1.32.69-.06.08-.11.14-.13.19l-.11.18.34.21.19-.27c.13-.19.32-.35.55-.48.41-.22.9-.3,1.48-.23.28.03.55.1.83.2l.11-.18-.3-.1h0Z"/>
      <path class="cls-7" d="M15.3,18.86l.02-.12.06-.27v-.18s-.04-.15-.04-.15l-.04-.12c-.01-.05-.11-.21-.28-.46l-.1-.09c-.06-.06-.12-.1-.17-.13-.08-.06-.14-.1-.18-.12-.04-.02-.12-.05-.23-.08l-.27-.08,1.33-1.49-.55.11-3.14,3.49.54-.1,1.47-1.63.15.02h.12c.16.03.34.11.51.23l.12.13s.07.07.09.12l.06.15c.02.07.04.13.04.2l-.12.04-.08.04-.24.15-.18.16s-.04.06-.04.07l-.03.04s-.02.04-.02.05l-.02.03c-.07.13-.05.24.05.33l.1.07s.08.02.14.03l.11.06.1.02.26.04c.07.01.16,0,.26-.02l.44.03.56-.02c.12,0,.3-.03.52-.08.5-.1.94-.27,1.33-.49v-.16c-.19.08-.41.14-.63.2l-.34.08c-.07.02-.19.03-.36.06-.59.08-1.04.08-1.36.02l.04-.14h0Z"/>
      <path class="cls-7" d="M22.78,13.79c.11-.16.18-.33.19-.52.01-.19-.04-.37-.15-.52-.05-.07-.1-.12-.15-.16-.06-.05-.12-.08-.19-.09l.08-.02.07-.04.07-.03.06-.04.17-.15.2-.23.04-.03.04-.05.98,1.39.63.05-2.33-3.33.96-.67h-.57s-1.91,1.33-1.91,1.33l.52.04.61-.42.86,1.23-.04.17-.08.16-.07.09-.06.06-.07.07-.08.05-.12.08s-.07.04-.12.06l-.13.06-.1.03-.2-.04c-.11-.02-.25,0-.42.07l-.22.12c.17-.22.26-.42.27-.6.01-.22-.02-.39-.1-.5-.13-.18-.34-.27-.64-.27-.22,0-.47.08-.74.22-.08.04-.17.1-.27.17-.05.04-.13.1-.22.18l-.22.18-.22.24c-.05.05-.12.14-.21.26l.39.18.28-.37.21-.26.18-.19.17-.14c.07-.06.15-.1.23-.12.14-.07.28-.07.42-.01l.21.14c.12.17.11.39-.03.65-.12.21-.26.39-.42.54-.03.03-.09.08-.18.14l-.09.06s-.05.03-.07.03l.29.24.06-.03s.05-.05.05-.06l.06-.06.09-.07c.1-.08.25-.17.44-.25.35-.14.65-.16.88-.08.12.05.22.11.28.2.04.05.06.11.07.16l.03.17v.23c0,.06-.02.13-.05.21l-.13.19-.18.16c-.11.08-.24.14-.4.18-.26.08-.6.08-1.04-.02-.22-.04-.45-.11-.7-.22v.21c.5.31.97.45,1.41.42.3-.02.57-.12.82-.29l.11-.08.04-.04.05-.05.03-.03c.16-.12.27-.23.34-.32h0Z"/>
      <polygon class="cls-7" points="21.87 8.73 22.49 8.87 22.7 8.29 22.06 8.14 21.87 8.73 21.87 8.73"/>
      <path class="cls-7" d="M25.94,8.22c.33.04.6.13.81.27.22.15.39.32.49.53.17.34.21.72.11,1.13-.1.41-.28.68-.53.81l1.17.36-.16.26-1.36-.42-.19.16-.14.08c-.25.14-.42.13-.51-.05l-.03-.11c-.03-.12-.01-.22.06-.3.04-.04.1-.09.19-.14l.15-.05c.12-.02.22,0,.3.07l.15.13c.29-.18.46-.47.52-.85v-.23s-.02-.29-.02-.29l-.02-.16-.02-.18-.07.14-.17.26-.28.31-.17.15c-.06.03-.09.05-.11.07l-.07.04c-.39.2-.75.2-1.09,0-.09-.07-.16-.15-.21-.25-.12-.23-.1-.51.04-.85.04-.1.11-.23.21-.39l-1.19.6-.55-.11,3.45-1.76.55.11-1.3.66h0ZM25.09,9.12c-.07.21-.08.4-.04.57.01.05.03.11.07.17l.1.13c.11.07.27.09.5.06.12-.01.21-.04.29-.08l.16-.11.15-.16.06-.1.06-.11.05-.15.07-.27v-.14s-.04-.15-.04-.15c-.06-.11-.15-.2-.29-.27-.13-.07-.27-.1-.4-.09-.1.01-.18.03-.24.06-.24.12-.41.33-.5.62h0Z"/>
      <polygon class="cls-7" points="29.46 10.69 30.02 10.88 28.51 7.12 29.61 6.68 29.07 6.53 26.78 7.46 27.31 7.61 28.08 7.29 29.46 10.69 29.46 10.69"/>
      <path class="cls-7" d="M31.88,6.04c.32.1.57.25.75.42.19.19.32.39.38.61.11.37.07.74-.11,1.13-.17.38-.4.61-.68.69l1.08.58-.2.22-1.26-.67-.21.12-.15.05c-.27.09-.43.05-.49-.15v-.11c-.02-.12.02-.22.1-.28.04-.03.11-.07.21-.11l.16-.02c.12,0,.22.04.29.12l.13.16c.32-.13.54-.37.67-.74l.05-.23.03-.29v-.16s.02-.18.02-.18l-.1.12-.22.23-.33.26-.2.11c-.06.02-.1.03-.12.05l-.07.02c-.42.12-.78.05-1.07-.2-.07-.09-.12-.18-.15-.29-.07-.25,0-.52.2-.83.06-.09.15-.2.28-.34l-1.28.37-.52-.21,3.72-1.07.52.21-1.41.4h0ZM30.87,6.76c-.11.19-.15.38-.14.55,0,.05.01.11.03.18l.07.15c.09.09.25.15.47.16.12,0,.22,0,.3-.02l.17-.08.18-.13.07-.08.08-.09.08-.14.12-.25.03-.13-.02-.16c-.03-.12-.11-.23-.23-.32-.12-.09-.24-.14-.37-.16-.1,0-.18,0-.24.02-.26.07-.46.25-.6.51h0Z"/>
      <polygon class="cls-7" points="34.9 9.04 35.41 9.35 34.78 5.35 35.95 5.17 35.47 4.9 33.02 5.29 33.51 5.55 34.33 5.42 34.9 9.04 34.9 9.04"/>
      <polygon class="cls-7" points="36.86 8.72 37.36 9.05 36.87 5.03 38.05 4.89 37.57 4.61 35.11 4.91 35.59 5.19 36.42 5.09 36.86 8.72 36.86 8.72"/>
      <path class="cls-7" d="M33.12,3.53h.04s.03,0,.03,0h.09c.45-.07,1.03.07,1.76.4.67.3,1.12.63,1.37.97l.26-.04c-.15-.21-.34-.41-.59-.61-.24-.2-.54-.4-.88-.58-.8-.44-1.53-.63-2.21-.54l.11.42h0Z"/>
      <path class="cls-7" d="M40.56,6.11l-.25.03h-.14c-.41.04-.74-.06-.99-.28-.09-.08-.19-.19-.28-.33l.2.09.22.04h.08s.07,0,.07,0c.33-.02.54-.15.64-.39.02-.07.04-.15.04-.25-.01-.16-.08-.29-.2-.39-.15-.13-.39-.18-.7-.16-.53.04-.78.27-.75.71,0,.09.02.16.03.21l.07.23c.05.16.23.35.52.56l.18.13.26.15c-.24.14-.44.31-.58.51l-.11.21-.02.22.04.18.08.16.02.02.02.02.03.02c.08.07.17.14.28.2.1.04.2.09.32.12l.32.06h.33c.24,0,.53-.07.87-.23.06-.03.16-.08.31-.17l.21-.14.29-.22-.05-.76c-.07.12-.16.24-.27.35-.13.13-.25.24-.37.33l-.17.12-.22.15c-.36.16-.65.25-.87.27-.26.02-.45-.07-.57-.27v-.03s-.02-.03-.02-.03l-.02-.1-.02-.15c-.02-.16.02-.29.11-.4.1-.1.29-.21.56-.31l.4-.07.41-.08-.17-.35-.13.03h0ZM40.23,4.42l.46.3.93-.06-.44-.31-.94.07h0ZM39.44,4.68c.15,0,.26.06.32.17.02.04.04.1.06.18,0,.05,0,.1-.03.13l-.06.11s-.08.07-.13.09l-.19.03h-.19c-.14,0-.26-.06-.36-.15l-.13-.17.02-.12.12-.12.07-.05.08-.04.08-.02h.08c.05-.02.09-.03.13-.03h.08s.04,0,.04,0h0Z"/>
      <polygon class="cls-7" points="41.99 8.4 42.44 8.8 42.51 4.75 43.69 4.77 43.26 4.43 40.79 4.38 41.22 4.73 42.05 4.74 41.99 8.4 41.99 8.4"/>
      <path class="cls-7" d="M44.18,4.73l3.23.4-.13,1.1-2.36-.29c-.12-.02-.23-.02-.33,0-.23,0-.37.08-.42.26-.02.13.04.29.17.49l.12.19.18.17.07.03h.08s.05,0,.05,0h.04s.06-.03.06-.03l.07-.04s.03-.04.03-.06l.16-.37s.02-.04.02-.05l.04-.03.06-.04.12-.06.09-.02,1.7.2-.28,2.25.43.41.5-4.04,1.23.15-.38-.38-5.02-.62.45.39h0Z"/>
      <path class="cls-7" d="M53.99,8.3c-.2.52.02.96.66,1.31.07.04.15.08.23.11.23.09.42.13.58.14.16,0,.33,0,.5-.05l-.59,1.54.31.5,1.46-3.8,1.03.39-.27-.46-4.33-1.66.29.47.63.24-.49,1.27h0ZM54.91,7.2l1.79.69-.6,1.56c-.11.09-.29.14-.51.14l-.3-.02-.31-.09c-.15-.04-.28-.13-.4-.24-.12-.12-.2-.24-.23-.39,0-.1.01-.19.05-.29l.52-1.36h0Z"/>
      <polygon class="cls-7" points="56.15 10.1 53.17 10.35 53.36 10.77 55.96 10.46 56.15 10.1 56.15 10.1"/>
      <path class="cls-7" d="M57.72,10.75c0,.2.03.4.12.58l.11.23.18.29c.09.1.17.17.23.21l.27.18c.12.08.27.14.46.18.19.04.35.05.5.03l.19-.02.24-.06-.65,1.17.23.53,1.96-3.54,1.06.59-.22-.51-4.29-2.38.22.51.94.52c-.06.44-.16.78-.29,1.02-.2.36-.44.46-.73.3-.13-.07-.26-.19-.37-.35-.1.17-.15.35-.15.52h0ZM58.16,10.91l.06.04.05.05.07.04c.23.13.48.06.76-.2.09-.1.16-.2.22-.31.08-.14.14-.31.19-.5.05-.19.09-.38.11-.57l1.53.85-.96,1.74c-.09.04-.21.06-.35.06l-.39-.02c-.07,0-.2-.03-.4-.09l-.36-.16-.17-.1c-.07-.06-.16-.16-.29-.31-.05-.08-.08-.17-.1-.27-.02-.1-.02-.21-.01-.33l.04.06h0Z"/>
      <polygon class="cls-7" points="61.05 14.69 61.2 15.27 63.52 11.95 64.5 12.63 64.33 12.1 62.3 10.69 62.47 11.21 63.15 11.69 61.05 14.69 61.05 14.69"/>
      <path class="cls-7" d="M62.13,8.36l.03.03h.03s.07.07.07.07c.36.28.67.79.95,1.53.26.68.35,1.24.28,1.66l.21.15c.04-.25.05-.53.02-.85-.03-.32-.1-.66-.21-1.03-.25-.88-.64-1.53-1.18-1.94l-.22.38h0Z"/>
      <path class="cls-7" d="M64.05,15.89l.28-.15.33-.27.35-.36.36-.41s.06-.08.09-.14l.11-.13c.04-.07.06-.11.07-.13l.27-.4,1.14.99-2.42,2.79.12.57,2.66-3.06.98.85-.11-.54-3.67-3.19v.46s.99.85.99.85l-1.18,1.36-.47-.41h-.12s-.05,0-.09.04l-.04.04v.04s-.02.02-.02.02v.02s-.01.04-.01.04v.85l.04.15s.03.05.07.08l.05.04.04.02s.11,0,.19-.03h0Z"/>
      <path class="cls-7" d="M69.86,17.99c.04.33.03.62-.05.86-.09.25-.21.46-.38.61-.28.26-.64.39-1.06.4-.42,0-.73-.09-.92-.31l-.05,1.22-.29-.09.06-1.43-.2-.14-.12-.12c-.2-.2-.23-.37-.08-.5l.09-.06c.11-.06.21-.07.31-.02.05.03.11.08.19.14l.08.13c.05.11.06.22.01.31l-.09.18c.25.23.57.32.96.28l.23-.05.27-.1.15-.06.17-.07-.15-.04-.3-.1-.37-.18-.19-.13s-.07-.07-.1-.08l-.05-.06c-.29-.32-.39-.67-.29-1.05.05-.1.11-.19.19-.26.19-.17.47-.23.83-.18.11.01.25.05.43.1l-.89-.99-.04-.56,2.59,2.88.04.55-.98-1.09h0ZM68.77,17.4c-.22-.01-.41.03-.56.11-.05.03-.09.06-.15.11l-.1.13c-.04.12-.02.29.06.5.04.11.09.19.15.26l.15.12.2.1.11.03.12.03h.16s.28.01.28.01l.14-.03.13-.08c.09-.08.16-.2.19-.35.03-.15.02-.28-.02-.41-.04-.09-.08-.16-.12-.21-.18-.2-.42-.31-.73-.32h0Z"/>
      <polygon class="cls-7" points="68.39 22.02 68.35 22.62 71.62 20.24 72.32 21.2 72.33 20.65 70.88 18.64 70.86 19.2 71.35 19.87 68.39 22.02 68.39 22.02"/>
      <polygon class="cls-7" points="69.54 23.7 69.46 24.29 72.86 22.08 73.5 23.08 73.55 22.53 72.2 20.45 72.15 21 72.61 21.7 69.54 23.7 69.54 23.7"/>
      <path class="cls-7" d="M71.65,25.25c.09-.18.19-.32.29-.44.1-.11.2-.19.3-.24.29-.16.54-.12.77.11.08.08.15.18.2.27.16.31.21.68.15,1.11h-.03s-.05-.02-.05-.02l-.15-.06-.17-.06-.07.46.45.1.38.12c.21.09.37.23.47.42l.03.06.04.1-2.1,1.11-.11.61,3.58-1.9.54,1.01.09-.55-2.6-4.88-.15.43,1.89,3.55-.81.43c-.09-.17-.19-.32-.28-.44-.09-.12-.18-.19-.26-.22l-.24-.09-.22-.09.05-.29.02-.28v-.25s-.08-.35-.08-.35c-.02-.06-.03-.12-.05-.19l-.06-.12c-.15-.27-.35-.45-.62-.54-.27-.09-.53-.06-.8.08-.38.2-.67.59-.88,1.17-.11.31-.2.75-.25,1.31l.27-.05c.09-.55.24-1.02.45-1.42h0Z"/>
      <polygon class="cls-7" points="72.91 30.41 72.69 30.96 76.52 29.64 76.9 30.76 77.08 30.24 76.27 27.9 76.1 28.42 76.37 29.21 72.91 30.41 72.91 30.41"/>
      <path class="cls-7" d="M76.65,35.62c-.56.08-.83.48-.83,1.21,0,.08,0,.17.02.26.03.24.08.43.15.57.07.14.16.28.29.42l-1.64.23-.28.51,4.03-.57.15,1.09.27-.46-.64-4.59-.27.48.09.66-1.35.19h0ZM78.06,35.89l.27,1.9-1.65.23c-.13-.06-.26-.18-.37-.38l-.13-.28-.07-.31c-.03-.15-.03-.31.02-.47.04-.16.12-.29.23-.39.08-.05.18-.09.27-.1l1.44-.2h0Z"/>
      <polygon class="cls-7" points="76.13 38.24 74.33 35.86 74.08 36.24 75.73 38.28 76.13 38.24 76.13 38.24"/>
      <path class="cls-7" d="M75.63,40.79c.15-.11.3-.19.45-.25.15-.06.28-.09.38-.1.32-.01.55.18.7.58l.07,1.73h.37s-.07-2.1-.07-2.1c-.04-.16-.08-.29-.13-.37-.13-.31-.38-.45-.74-.44-.24,0-.52.1-.82.29-.3.18-.59.44-.86.77-.19.23-.37.48-.52.75l.16.11c.41-.47.76-.8,1.02-.98h0ZM78.4,39.46l.12,3.58.32-.43-.12-3.57-.32.42h0Z"/>
      <path class="cls-7" d="M76.37,43.28c-.19.08-.35.2-.47.36l-.16.19-.18.29c-.05.13-.09.23-.1.29l-.05.32c-.02.14-.01.3.03.49.04.19.1.34.18.46l.1.16.15.19-1.33-.09-.38.44,4.04.28-.08,1.21.36-.41.34-4.9-.36.41-.07,1.07c-.42.13-.77.19-1.05.17-.41-.03-.61-.2-.58-.53,0-.15.06-.31.16-.49-.2-.01-.38.01-.54.08h0ZM76.41,43.74v.08s-.04.07-.04.07v.08c-.02.26.14.46.5.6.13.04.26.06.38.07.16.01.34,0,.53-.04.19-.04.38-.08.56-.14l-.12,1.74-1.98-.14c-.07-.07-.14-.16-.2-.29l-.15-.36c-.02-.06-.05-.2-.09-.4v-.39s0-.2,0-.2c.02-.08.08-.22.16-.39.05-.08.12-.15.2-.21.08-.06.18-.11.29-.15l-.04.07h0Z"/>
      <polygon class="cls-7" points="74.2 47.99 73.75 48.38 77.75 49.02 77.56 50.19 77.96 49.81 78.35 47.36 77.95 47.74 77.82 48.57 74.2 47.99 74.2 47.99"/>
      <path class="cls-7" d="M75.46,50.04c-.2.04-.38.12-.54.25l-.2.16-.24.25c-.08.11-.13.2-.16.27l-.11.3c-.05.13-.07.29-.07.48,0,.19.03.36.08.49l.07.18.11.22-1.28-.37-.47.35,3.89,1.12-.33,1.17.44-.33,1.35-4.72-.44.33-.3,1.03c-.44.04-.79.02-1.06-.05-.4-.11-.55-.33-.46-.64.04-.14.13-.29.26-.44-.19-.05-.37-.07-.54-.03h0ZM75.41,50.5l-.03.07-.03.06-.02.07c-.07.25.05.49.37.7.12.06.24.11.35.15.15.04.33.07.53.07.2,0,.39,0,.58-.02l-.48,1.68-1.91-.55c-.05-.08-.1-.19-.14-.33l-.07-.39c0-.07-.01-.21,0-.41l.07-.38.06-.19c.04-.08.12-.2.24-.35.07-.06.14-.12.24-.16.09-.04.2-.07.31-.08l-.05.06h0Z"/>
      <path class="cls-7" d="M75.81,55.69l-1.48,2.9-.99-.5,1.08-2.11c.06-.11.1-.22.12-.31.08-.22.05-.38-.1-.49-.11-.06-.29-.06-.52,0l-.22.05-.22.11-.05.05-.04.08s-.01.05,0,.05v.04s0,.06,0,.06l.02.08s.02.04.05.05l.29.28s.04.03.04.04v.05s.03.07.03.07l.02.13v.09s-.78,1.53-.78,1.53l-2.02-1.03-.53.27,3.62,1.85-.56,1.1.49-.22,2.29-4.5-.52.29h0Z"/>
      <path class="cls-7" d="M65.86,64.23l-.56.13,3.06,2.66-.82.95.54-.11,3.26-3.75-.54.11-2.13,2.45-.89-.77c.19.03.41,0,.66-.1.17-.07.33-.18.48-.33.04-.04.07-.08.09-.1.29-.33.46-.7.53-1.12.07-.42,0-.72-.2-.9-.45-.39-.96-.41-1.55-.06-.17.11-.33.24-.46.4l-.15.19-.13.21-.06.11-.05.11c-.07.15-.12.34-.14.55,0,.04,0,.1,0,.19l-.93-.81h0ZM69.08,64.69l-.1.24-.15.22c-.1.11-.18.19-.25.24-.07.05-.18.1-.33.16l-.32.09-.36.04-.45-.39-.04-.17v-.18s-.01-.09-.01-.09v-.07s.02-.08.02-.08l.03-.07,1.95.06h0ZM69.03,63.63c.05.08.1.19.15.32.04.12.05.26.02.39l-1.92-.04.12-.26.16-.21c.1-.13.23-.23.4-.3.14-.07.3-.1.47-.11l.2.02.26.06s.06.04.08.05l.07.08h0Z"/>
      <polygon class="cls-7" points="64.33 65.77 63.73 65.81 66.54 68.72 65.69 69.55 66.24 69.48 68.02 67.76 67.47 67.83 66.87 68.41 64.33 65.77 64.33 65.77"/>
      <path class="cls-7" d="M70.37,67.87l-.04.02-.02.03-.07.06c-.34.3-.89.53-1.67.67-.72.14-1.28.13-1.69,0l-.19.18c.24.09.52.14.83.16.32.02.67.02,1.05-.02.91-.09,1.62-.37,2.12-.82l-.33-.28h0Z"/>
      <path class="cls-7" d="M62.31,67.79c-.22.01-.43.05-.62.1-.21.08-.38.17-.52.27-.33.24-.54.54-.61.89-.07.35-.01.66.18.92.22.31.53.41.93.31l.23-.09.3-.17c.06-.04.1-.08.13-.12l.18-.13.21-.15c.05-.02.09-.04.11-.06.24-.12.42-.16.55-.12.05.02.1.07.16.15.07.09.07.19,0,.31l-.02.02-.03.04-.03.03-.03.06-1.7,1.23.64.8-1.04.75h.56s4.25-3.08,4.25-3.08h-.55s-2.86,2.07-2.86,2.07l-.41-.57,1.52-1.1s.08-.07.1-.11l.06-.14.02-.06v-.08c0-.06,0-.11-.01-.16l-.08-.16-.08-.11c-.05-.05-.16-.1-.33-.17-.09-.03-.19-.05-.28-.06l-.31.02-.06.02-.51.37-.04.04-.35.23c-.06.04-.12.06-.17.08-.13.07-.27.09-.43.07-.08,0-.15-.03-.23-.07l-.03-.03-.04-.02-.03-.04-.05-.04c-.03-.13-.02-.28.02-.45.04-.17.11-.33.2-.47l.07-.1.07-.09.09-.13.1-.11c.22-.12.46-.2.71-.24.3-.04.59-.03.88.02l.36.08.46.15.09-.25c-.61-.26-1.18-.37-1.7-.34h0Z"/>
      <path class="cls-7" d="M62.65,72.75l.39.16c.23.12.39.26.49.4.1.15.12.3.06.46-.05.14-.15.26-.3.36-.31.2-.67.23-1.08.08l-.05.3.48.1.21.02h.21c.24-.01.46-.07.64-.2.1-.07.18-.14.23-.23.1-.14.15-.3.13-.49-.01-.17-.07-.33-.17-.48-.07-.11-.15-.2-.21-.27-.3-.27-.68-.46-1.13-.58l-.38.26c.21.03.38.07.5.12h0Z"/>
      <polygon class="cls-7" points="26.22 64.26 26.23 64.27 26.11 66.3 26.58 66.61 27.96 64.47 27.55 64.2 26.56 65.72 26.55 65.72 26.67 63.63 26.23 63.35 24.84 65.48 25.26 65.75 26.22 64.26 26.22 64.26"/>
      <path class="cls-7" d="M25.06,63.12l-.73-.59.2-.51-.45-.36-.9,2.54.48.39,2.3-1.41-.43-.35-.47.3h0ZM23.79,63.95h0s.39-.98.39-.98l.5.41-.89.58h0Z"/>
      <polygon class="cls-7" points="21.83 62.41 21.28 61.88 20.96 62.2 22.45 63.64 22.76 63.32 22.21 62.78 23.66 61.28 23.28 60.91 21.83 62.41 21.83 62.41"/>
      <polygon class="cls-7" points="20.32 61.5 20.68 61.89 22.54 60.16 22.18 59.77 20.32 61.5 20.32 61.5"/>
      <path class="cls-7" d="M20.94,60.35c.91-.77.46-1.54.24-1.8-.22-.26-.9-.84-1.81-.08-.91.77-.46,1.54-.24,1.8.22.26.9.84,1.81.08h0ZM20.6,59.94c-.54.46-.94.26-1.12.04-.18-.22-.31-.64.24-1.1.55-.46.94-.26,1.12-.04.18.22.31.64-.24,1.1h0Z"/>
      <polygon class="cls-7" points="18.59 56.39 18.59 56.4 17.62 58.19 17.92 58.67 20.08 57.32 19.81 56.9 18.28 57.86 18.27 57.85 19.26 56.01 18.98 55.56 16.82 56.91 17.09 57.33 18.59 56.39 18.59 56.39"/>
      <path class="cls-7" d="M17.96,54.92l-.43-.84.39-.38-.26-.51-1.86,1.95.28.55,2.68-.35-.25-.5-.55.08h0ZM16.46,55.16h0s.75-.74.75-.74l.29.58-1.04.17h0Z"/>
      <polygon class="cls-7" points="14.95 53.44 15.17 53.92 17.49 52.89 16.76 51.25 16.34 51.44 16.85 52.59 14.95 53.44 14.95 53.44"/>
      <path class="cls-7" d="M15.64,49.59l-.24-.91.46-.29-.15-.56-2.22,1.52.16.59,2.69.22-.14-.54-.55-.04h0ZM14.13,49.51h0s.89-.57.89-.57l.17.63-1.06-.05h0Z"/>
      <path class="cls-7" d="M13.59,45.84c-.36.09-.83.49-.69,1.24.11.65.65,1.07,1.52.92.86-.15,1.23-.71,1.11-1.38-.11-.63-.55-.92-1.12-.92l.09.52c.32,0,.52.18.57.47.08.44-.3.69-.74.77-.71.12-.94-.22-.98-.47-.08-.43.19-.56.33-.63l-.09-.52h0Z"/>
      <path class="cls-7" d="M13.33,43.12c-.37.05-.87.4-.82,1.16.05.65.53,1.13,1.42,1.07.88-.06,1.3-.58,1.25-1.25-.04-.64-.45-.97-1.01-1.04l.04.53c.32.04.5.23.52.53.03.45-.37.66-.82.69-.72.05-.91-.31-.93-.57-.03-.44.25-.54.4-.59l-.04-.53h0Z"/>
      <path class="cls-7" d="M14.94,42.6l.02-.52-.99-.03.02-.55c.01-.39.15-.41.49-.4.26,0,.39,0,.52-.04l.02-.59h-.07c-.05.11-.14.11-.51.09-.47-.02-.56.09-.65.3-.08-.25-.31-.4-.59-.41-.22,0-.72.1-.75.77l-.04,1.28,2.54.09h0ZM13.53,42.03l-.68-.02.02-.66c.01-.31.21-.36.35-.36.25,0,.34.15.33.42l-.02.62h0Z"/>
      <polygon class="cls-7" points="12.66 37.93 12.5 39.79 15.03 40.01 15.2 38.09 14.75 38.05 14.62 39.46 13.97 39.4 14.08 38.17 13.63 38.13 13.52 39.36 12.99 39.31 13.11 37.97 12.66 37.93 12.66 37.93"/>
      <path class="cls-7" d="M15.26,37.68l.21-1.08c.16-.82-.57-1.19-1.11-1.29-.47-.09-1.22-.06-1.39.78l-.21,1.1,2.5.49h0ZM13.29,36.77l.1-.5c.04-.22.17-.56.91-.42.41.08.81.31.73.73l-.1.51-1.63-.32h0Z"/>
      <polygon class="cls-7" points="13.47 34 13.33 34.51 15.77 35.21 15.92 34.7 13.47 34 13.47 34"/>
      <polygon class="cls-7" points="14.37 32.52 14.62 31.79 14.2 31.65 13.53 33.6 13.95 33.75 14.2 33.02 16.18 33.7 16.35 33.2 14.37 32.52 14.37 32.52"/>
      <polygon class="cls-7" points="14.55 30.77 14.35 31.26 16.71 32.21 16.91 31.72 14.55 30.77 14.55 30.77"/>
      <path class="cls-7" d="M15.89,30.82c1.08.5,1.59-.24,1.73-.54.14-.3.38-1.17-.7-1.67-1.08-.5-1.59.24-1.73.54-.14.31-.38,1.17.7,1.67h0ZM16.11,30.34c-.64-.3-.63-.74-.51-1,.12-.26.45-.55,1.1-.25.65.3.63.74.51,1-.12.26-.45.55-1.1.25h0Z"/>
      <polygon class="cls-7" points="18.41 27.06 18.41 27.07 16.37 27.06 16.09 27.54 18.29 28.81 18.54 28.38 16.97 27.48 16.97 27.47 19.06 27.48 19.33 27.02 17.13 25.75 16.88 26.18 18.41 27.06 18.41 27.06"/>
      <path class="cls-7" d="M20.18,25.81l.68-.84c.33-.4.34-.57.33-.77-.02-.19-.11-.37-.27-.5-.2-.16-.44-.25-.73-.08.03-.12.07-.34-.21-.57-.2-.16-.61-.29-1,.2l-.78.96,1.98,1.6h0ZM19.63,24.7l.43-.53c.12-.15.31-.24.48-.1.2.16.2.35.03.55l-.41.51-.53-.43h0ZM18.87,24.09l.38-.47c.15-.19.29-.26.46-.13.16.13.12.31-.02.47l-.39.48-.43-.35h0Z"/>
      <path class="cls-7" d="M20.8,23.04c.86.83,1.58.29,1.81.05.23-.24.74-.98-.11-1.81-.86-.83-1.58-.29-1.81-.05-.23.24-.74.98.11,1.81h0ZM21.17,22.65c-.51-.49-.36-.91-.16-1.11.2-.21.61-.37,1.12.12.51.49.36.91.16,1.11-.2.21-.61.37-1.12-.12h0Z"/>
      <path class="cls-7" d="M23.69,21.23l.72-.6.46.3.44-.37-2.32-1.37-.47.39.94,2.53.43-.36-.2-.52h0ZM23.12,19.83h0s.89.56.89.56l-.5.42-.4-.98h0Z"/>
      <path class="cls-7" d="M25.58,20.34l.43-.3-.57-.81.45-.31c.32-.23.42-.13.61.16.15.21.24.31.34.39l.48-.34-.04-.06c-.12.03-.17-.04-.38-.35-.27-.39-.41-.39-.63-.34.16-.21.13-.49-.03-.72-.13-.18-.51-.52-1.07-.13l-1.05.74,1.46,2.08h0ZM25.19,18.87l-.39-.56.54-.38c.26-.18.42-.05.5.06.14.21.09.36-.14.52l-.51.36h0Z"/>
      <path class="cls-7" d="M27.7,18.91l.96-.53c.73-.41.54-1.2.28-1.68-.23-.42-.74-.97-1.49-.56l-.98.54,1.23,2.22h0ZM27.13,16.82l.45-.25c.2-.11.54-.23.9.43.2.37.29.82-.09,1.03l-.45.25-.81-1.46h0Z"/>
      <polygon class="cls-7" points="30.94 16.05 31.98 15.65 31.82 15.23 30.78 15.64 30.57 15.1 31.77 14.64 31.61 14.22 29.92 14.87 30.83 17.24 31.32 17.05 30.94 16.05 30.94 16.05"/>
      <path class="cls-7" d="M32.38,15.22c.31,1.15,1.2,1.06,1.53.98.33-.09,1.14-.46.83-1.61-.31-1.15-1.2-1.06-1.53-.98-.33.09-1.14.46-.83,1.61h0ZM32.9,15.08c-.18-.69.16-.96.44-1.04.28-.07.71,0,.9.68.18.69-.16.96-.44,1.04-.28.07-.71,0-.9-.68h0Z"/>
      <path class="cls-7" d="M35.48,15.66l.51-.09-.17-.98.54-.1c.39-.07.43.06.49.4.05.26.09.38.15.5l.58-.1v-.07c-.13-.02-.15-.11-.21-.48-.08-.47-.21-.52-.43-.58.23-.13.33-.39.28-.66-.04-.22-.25-.69-.91-.57l-1.27.22.44,2.5h0ZM35.74,14.17l-.12-.67.65-.12c.31-.05.4.13.42.26.04.25-.07.37-.34.41l-.61.11h0Z"/>
      <polygon class="cls-7" points="39.56 12.96 40.33 12.91 40.3 12.46 38.23 12.61 38.26 13.05 39.03 13 39.18 15.09 39.71 15.05 39.56 12.96 39.56 12.96"/>
      <polygon class="cls-7" points="42.71 12.46 40.84 12.43 40.79 14.97 42.72 15.01 42.73 14.56 41.32 14.53 41.33 13.87 42.57 13.9 42.58 13.45 41.34 13.42 41.35 12.89 42.7 12.91 42.71 12.46 42.71 12.46"/>
      <path class="cls-7" d="M43.08,14.23c-.02.31.1.86,1.02.92.22.02,1,0,1.06-.76.03-.46-.28-.62-.62-.73l-.61-.19c-.1-.03-.26-.09-.25-.28.02-.23.26-.29.46-.27.46.03.49.3.49.42l.51.04c.02-.31-.15-.83-.93-.89-.82-.06-1.01.43-1.03.71-.04.56.35.68.75.8l.27.08c.26.08.45.15.44.35-.02.27-.3.31-.55.29-.46-.03-.51-.31-.51-.45l-.51-.04h0Z"/>
      <polygon class="cls-7" points="46.9 13.39 47.66 13.52 47.74 13.08 45.7 12.72 45.62 13.16 46.38 13.3 46.02 15.36 46.54 15.45 46.9 13.39 46.9 13.39"/>
      <polygon class="cls-7" points="48.65 13.3 48.13 13.18 47.56 15.66 48.08 15.78 48.65 13.3 48.65 13.3"/>
      <polygon class="cls-7" points="50.29 15.65 50.29 15.64 49.87 13.65 49.34 13.48 48.56 15.89 49.03 16.05 49.59 14.32 49.6 14.32 50.02 16.37 50.53 16.53 51.31 14.12 50.84 13.96 50.29 15.65 50.29 15.65"/>
      <path class="cls-7" d="M52.49,16.3l.54.24c-.31.42-.68.31-.79.26-.33-.15-.6-.47-.32-1.1.26-.59.69-.69,1.04-.54.34.15.38.52.34.61l.49.22c.12-.33.04-.92-.67-1.24-.78-.35-1.4.09-1.68.72-.36.81-.03,1.44.53,1.69.42.19.7.06.88-.03l-.08.31.32.14.56-1.25-.97-.43-.17.39h0Z"/>
      <path class="cls-7" d="M56.31,17.11c-.06.11-.2.15-.36.16-.04-.17-.05-.29,0-.37.06-.12.18-.13.28-.08.11.06.15.16.08.29h0ZM56.2,18.65c.26-.11.43-.24.63-.53l-.38-.21c-.11.16-.21.25-.32.3l-.1-.57c.12,0,.49-.01.66-.33.2-.36-.02-.68-.26-.82-.35-.19-.71-.12-.87.18-.11.19-.09.42-.06.58h-.06c-.49.02-.67.2-.79.41-.18.33-.08.78.34,1.02.33.19.57.16.77.1l.05.27.52.29-.13-.71h0ZM55.69,18.4c-.11.03-.29.04-.43-.04-.26-.14-.21-.39-.17-.48.1-.18.21-.19.47-.23l.13.74h0Z"/>
      <path class="cls-7" d="M60.13,20.14c.21-.31.29-.92-.31-1.38-.52-.4-1.2-.36-1.75.34-.54.69-.44,1.35.09,1.77.5.39,1.02.31,1.45-.06l-.42-.33c-.24.21-.51.21-.74.03-.35-.28-.24-.71.04-1.07.44-.57.84-.47,1.04-.31.35.27.23.55.17.69l.42.33h0Z"/>
      <path class="cls-7" d="M60.11,21.79l.69.64-.24.49.42.39,1.08-2.47-.45-.42-2.4,1.24.41.38.49-.26h0ZM61.43,21.05h0s-.46.96-.46.96l-.47-.44.92-.51h0Z"/>
      <polygon class="cls-7" points="63.45 22.33 63.1 21.93 61.18 23.6 62.36 24.95 62.71 24.65 61.88 23.7 63.45 22.33 63.45 22.33"/>
      <polygon class="cls-7" points="64.84 24.01 64.51 23.6 62.53 25.2 62.87 25.61 64.84 24.01 64.84 24.01"/>
      <path class="cls-7" d="M63.2,25.99l.59.9c.28.44.43.5.63.55.18.04.39,0,.56-.1.21-.14.37-.34.3-.67.1.06.3.18.61-.02.22-.14.46-.49.12-1.01l-.67-1.04-2.13,1.38h0ZM64.42,25.81l.37.57c.1.16.14.37-.05.49-.22.14-.39.08-.53-.14l-.35-.55.57-.37h0ZM65.25,25.27l.33.51c.13.2.16.36-.02.48-.17.11-.33.01-.44-.16l-.34-.52.47-.3h0Z"/>
      <path class="cls-7" d="M64.57,28.16l.24.46.88-.47.26.48c.18.35.08.43-.23.59-.23.12-.34.2-.43.29l.28.52.06-.03c-.02-.12.07-.16.39-.34.42-.22.43-.36.42-.59.19.18.47.19.72.06.19-.1.58-.45.26-1.04l-.6-1.14-2.24,1.19h0ZM66.07,27.96l.6-.32.31.59c.15.27,0,.42-.12.48-.22.12-.37.04-.5-.2l-.29-.55h0Z"/>
      <path class="cls-7" d="M66.44,30.7l.4.85-.41.37.24.52,1.92-1.89-.26-.56-2.69.25.24.51.55-.06h0ZM67.94,30.52h0s-.78.72-.78.72l-.27-.59,1.05-.13h0Z"/>
      <polygon class="cls-7" points="68.93 32.84 69.18 33.57 69.61 33.42 68.93 31.46 68.51 31.61 68.76 32.34 66.78 33.02 66.95 33.52 68.93 32.84 68.93 32.84"/>
      <polygon class="cls-7" points="69.84 34.33 69.7 33.82 67.25 34.52 67.4 35.03 69.84 34.33 69.84 34.33"/>
      <path class="cls-7" d="M68.78,35.13c-1.17.23-1.14,1.12-1.08,1.46.06.33.38,1.17,1.55.94,1.17-.23,1.14-1.12,1.08-1.45-.06-.33-.38-1.17-1.55-.94h0ZM68.88,35.65c.7-.14.95.23,1,.51.05.28-.04.71-.74.85-.7.14-.95-.23-1-.51-.05-.28.04-.71.74-.85h0Z"/>
      <polygon class="cls-7" points="68.92 39.69 68.92 39.68 70.59 38.53 70.54 37.97 68.01 38.19 68.05 38.68 69.86 38.53 69.86 38.53 68.15 39.72 68.19 40.25 70.72 40.03 70.68 39.54 68.92 39.69 68.92 39.69"/>
      <polygon class="cls-7" points="70.77 42.33 70.77 41.8 68.23 41.76 68.2 43.55 68.66 43.56 68.68 42.3 70.77 42.33 70.77 42.33"/>
      <path class="cls-7" d="M68.59,44.51l-.11.93-.54.1-.07.57,2.63-.58.07-.61-2.41-1.21-.07.56.5.24h0ZM69.97,45.15h0s-1.04.2-1.04.2l.08-.64.96.45h0Z"/>
      <path class="cls-7" d="M67.8,46.42l-.24,1.05c-.12.51-.06.66.04.83.1.16.27.29.46.33.24.06.5.03.69-.24.03.12.08.34.44.42.26.06.67,0,.81-.62l.28-1.2-2.48-.57h0ZM68.77,47.17l-.15.66c-.04.19-.17.35-.39.3-.25-.06-.33-.23-.27-.48l.15-.63.66.15h0ZM69.73,47.39l-.14.59c-.05.23-.15.36-.35.32-.2-.05-.24-.23-.19-.43l.14-.61.54.13h0Z"/>
      <path class="cls-7" d="M68.46,49.21c-1.13-.37-1.55.43-1.65.75-.1.32-.24,1.21.9,1.57,1.13.37,1.55-.43,1.65-.75.1-.32.24-1.21-.9-1.58h0ZM68.3,49.72c.68.22.72.66.63.93-.09.27-.38.6-1.06.38-.68-.22-.72-.66-.63-.93.09-.27.38-.6,1.06-.38h0Z"/>
      <path class="cls-7" d="M66.33,51.54l-.21.48.91.41-.22.5c-.16.36-.29.32-.61.18-.24-.11-.37-.14-.49-.16l-.24.54.06.03c.09-.09.17-.05.51.1.43.19.55.12.72-.03-.02.26.14.49.39.6.2.09.71.18.98-.44l.52-1.17-2.32-1.03h0ZM67.42,52.59l.62.28-.27.6c-.13.28-.33.26-.46.2-.23-.1-.26-.26-.15-.52l.25-.57h0Z"/>
      <path class="cls-7" d="M65.45,54.59l-.45.82-.54-.11-.28.5,2.66.45.3-.54-1.78-2.02-.27.49.37.41h0ZM66.49,55.7h0s-1.03-.21-1.03-.21l.31-.57.72.77h0Z"/>
      <polygon class="cls-7" points="65.32 57.8 64.91 58.45 65.3 58.68 66.39 56.93 66.01 56.69 65.6 57.35 63.83 56.24 63.55 56.69 65.32 57.8 65.32 57.8"/>
      <path class="cls-7" d="M64.04,58.15c-.94-.73-1.6-.13-1.81.14-.21.27-.64,1.05.3,1.79.94.73,1.6.13,1.81-.14.21-.27.64-1.05-.3-1.79h0ZM63.71,58.57c.56.44.45.86.28,1.09-.18.23-.56.43-1.13,0-.56-.44-.45-.86-.27-1.09.18-.23.56-.43,1.13,0h0Z"/>
      <path class="cls-7" d="M61.21,59.56l-.35.38.73.68-.37.4c-.27.29-.38.21-.63-.03-.19-.18-.3-.25-.41-.31l-.4.43.05.05c.11-.05.18,0,.45.26.35.32.48.29.69.2-.11.24-.03.51.17.7.16.15.61.4,1.07-.1l.88-.94-1.86-1.73h0ZM61.89,60.91l.5.46-.45.48c-.21.23-.4.14-.5.05-.18-.17-.16-.34.03-.54l.42-.46h0Z"/>
      <polygon class="cls-7" points="60.72 63.62 61.12 63.27 59.46 61.36 59.05 61.7 60.72 63.62 60.72 63.62"/>
      <polygon class="cls-7" points="58.81 65.17 60.27 63.99 58.67 62.01 57.17 63.23 57.45 63.58 58.55 62.69 58.96 63.2 58 63.98 58.28 64.33 59.24 63.55 59.58 63.97 58.53 64.82 58.81 65.17 58.81 65.17"/>
      <path class="cls-7" d="M57.34,64.06c-.17-.26-.6-.63-1.38-.12-.19.12-.8.6-.39,1.24.25.38.59.33.93.21l.6-.21c.1-.04.26-.09.37.08.13.19-.04.39-.21.5-.39.25-.57.05-.64-.04l-.43.28c.17.26.63.57,1.28.15.69-.45.55-.95.39-1.19-.3-.47-.69-.33-1.08-.19l-.26.09c-.26.09-.45.15-.56-.01-.15-.23.06-.43.27-.57.39-.25.6-.07.67.05l.43-.28h0Z"/>
      <polygon class="cls-7" points="37.9 67.99 37.37 67.91 37.02 70.43 37.54 70.5 37.9 67.99 37.9 67.99"/>
      <polygon class="cls-7" points="39.66 69.93 39.65 69.93 38.8 68.08 38.24 68.03 38.02 70.56 38.52 70.6 38.67 68.8 38.68 68.8 39.56 70.7 40.08 70.74 40.31 68.21 39.81 68.17 39.66 69.93 39.66 69.93"/>
      <path class="cls-7" d="M40.6,70.81l1.1-.04c.84-.03,1.03-.82,1.01-1.37-.02-.48-.22-1.2-1.08-1.17l-1.12.04.09,2.54h0ZM41.05,68.69l.51-.02c.23,0,.59.04.61.79.01.42-.12.86-.55.87l-.52.02-.06-1.66h0Z"/>
      <polygon class="cls-7" points="43.42 68.15 42.9 68.2 43.12 70.73 43.65 70.69 43.42 68.15 43.42 68.15"/>
      <path class="cls-7" d="M44.6,70.12l.93-.13.23.5.57-.08-1.24-2.39-.61.09-.54,2.64.55-.08.1-.54h0ZM44.86,68.63h0s.45.95.45.95l-.64.09.18-1.04h0Z"/>
      <path class="cls-4" d="M36.42,77.77l.09-.36-1.79-.45.16-.34.12-.36c.08-.26.08-.52-.02-.79-.06-.16-.18-.31-.37-.45-.05-.04-.13-.08-.24-.15l-.15-.05-.13-.04c-.23-.07-.44-.06-.65.02-.16.05-.27.16-.34.34l-.02.11.02.12.11.26.21.31.08.07c.07.07.15.12.25.18l.3.11.23.06.28.02-.04.15c-.04.07-.11.18-.2.31l-.02.02-.03.03-.02.02-.52-.13c-.07-.02-.12-.02-.15,0-.03.01-.05.04-.07.09v.08s.03.1.03.1l.51.87.05.05.05.03.05.02h.04s.05,0,.05,0l.05-.02.09-.03.02-.02.04-.03.02-.09v-.05s.07-.28.07-.28l.04-.13s.01-.04.03-.05l1.75.43h0ZM34.69,75.56v.05s.02.04.02.04l-.02.16-.06.14-.09.1-.14.05s-.08,0-.14,0l-.07-.03-.07-.03-.27-.17c-.08-.05-.14-.1-.21-.17-.06-.07-.11-.14-.14-.21-.02-.06-.02-.12-.02-.19.02-.09.1-.17.24-.23l.14-.03.17.02.13.03c.07.03.17.11.32.22l.08.08.11.12.02.07h0ZM35.74,75.47l.89.22-.34-.43-.89-.22.34.43h0ZM36.74,79.19l.4.45.56-4.01,1.17.16-.39-.39-2.45-.34.39.39.83.12-.51,3.63h0ZM39.6,79.45l.44.4.14-4.05,1.19.04-.43-.35-2.47-.09.43.35.83.03-.13,3.66h0ZM42.89,77.98l.1-.06.23-.15.13-.12.08-.13.06-.11s.07-.22.14-.52v-.14c0-.09-.02-.16-.03-.21,0-.1-.02-.17-.04-.21-.02-.05-.05-.12-.11-.22l-.13-.25,2-.08-.46-.32-4.69.16.45.32,2.19-.08.09.12.08.08c.09.14.15.32.19.53v.17c-.01.05-.02.1-.04.15l-.07.15c-.03.06-.07.12-.11.17l-.11-.06-.09-.03-.27-.07-.24-.02s-.07.01-.08.02h-.05s-.05.02-.05.02h-.03c-.14.05-.21.14-.21.27l.02.12s.04.07.07.12l.04.12.05.09.15.22c.04.06.11.12.19.17l.29.33.41.39c.09.08.23.19.41.32.42.29.85.49,1.28.61l.12-.11c-.2-.09-.39-.2-.59-.32l-.29-.19c-.06-.04-.16-.11-.29-.22-.47-.37-.78-.69-.95-.96l.13-.07h0ZM48.79,79.27l-.56-3.99,1.23-.17-.46-.27-4.94.69.48.27,3.22-.45.13.9-2.07.29c-.41.06-.65.25-.73.59-.03.11-.03.22-.01.34.05.37.26.74.61,1.1.39.41.85.71,1.36.92l.37-.08c-.41-.19-.79-.48-1.16-.88-.35-.38-.55-.72-.6-1.04-.01-.09-.01-.16,0-.23.02-.2.16-.33.44-.39.05,0,.08-.01.1-.01l1.73-.25.34,2.39.52.27h0Z"/>
      <path class="cls-7" d="M36.42,77.77l.09-.36-1.79-.45.16-.34.12-.36c.08-.26.08-.52-.02-.79-.06-.16-.18-.31-.37-.45-.05-.04-.13-.08-.24-.15l-.15-.05-.13-.04c-.23-.07-.44-.06-.65.02-.16.05-.27.16-.34.34l-.02.11.02.12.11.26.21.31.08.07c.07.07.15.12.25.18l.3.11.23.06.28.02-.04.15c-.04.07-.11.18-.2.31l-.02.02-.03.03-.02.02-.52-.13c-.07-.02-.12-.02-.15,0-.03.01-.05.04-.07.09v.08s.03.1.03.1l.51.87.05.05.05.03.05.02h.04s.05,0,.05,0l.05-.02.09-.03.02-.02.04-.03.02-.09v-.05s.07-.28.07-.28l.04-.13s.01-.04.03-.05l1.75.43h0ZM34.69,75.56v.05s.02.04.02.04l-.02.16-.06.14-.09.1-.14.05s-.08,0-.14,0l-.07-.03-.07-.03-.27-.17c-.08-.05-.14-.1-.21-.17-.06-.07-.11-.14-.14-.21-.02-.06-.02-.12-.02-.19.02-.09.1-.17.24-.23l.14-.03.17.02.13.03c.07.03.17.11.32.22l.08.08.11.12.02.07h0ZM35.74,75.47l.89.22-.34-.43-.89-.22.34.43h0Z"/>
      <polygon class="cls-7" points="36.74 79.19 37.14 79.64 37.7 75.63 38.88 75.79 38.49 75.4 36.04 75.05 36.42 75.45 37.25 75.56 36.74 79.19 36.74 79.19"/>
      <polygon class="cls-7" points="39.6 79.45 40.04 79.85 40.18 75.8 41.37 75.84 40.94 75.49 38.47 75.41 38.89 75.76 39.73 75.79 39.6 79.45 39.6 79.45"/>
      <path class="cls-7" d="M42.89,77.98l.1-.06.23-.15.13-.12.08-.13.06-.11s.07-.22.14-.52v-.14c0-.09-.02-.16-.03-.21,0-.1-.02-.17-.04-.21-.02-.05-.05-.12-.11-.22l-.13-.25,2-.08-.46-.32-4.69.16.45.32,2.19-.08.09.12.08.08c.09.14.15.32.19.53v.17c-.01.05-.02.1-.04.15l-.07.15c-.03.06-.07.12-.11.17l-.11-.06-.09-.03-.27-.07-.24-.02s-.07.01-.08.02h-.05s-.05.01-.05.02h-.03c-.14.05-.21.14-.21.27l.02.12s.04.07.07.12l.04.12.05.09.15.22c.04.06.11.12.19.17l.29.33.41.39c.09.08.23.19.41.32.42.29.85.49,1.28.61l.12-.11c-.2-.09-.39-.2-.59-.32l-.29-.19c-.06-.04-.16-.11-.29-.22-.47-.37-.78-.69-.95-.96l.13-.07h0Z"/>
      <path class="cls-7" d="M48.79,79.27l-.56-3.99,1.23-.17-.46-.27-4.94.69.48.27,3.22-.45.13.9-2.07.29c-.41.06-.65.25-.73.59-.03.11-.03.22-.01.34.05.37.26.74.61,1.1.39.41.85.71,1.36.92l.37-.08c-.41-.19-.79-.48-1.16-.88-.35-.38-.55-.72-.6-1.04-.01-.09-.01-.16,0-.23.02-.2.16-.33.44-.39.05,0,.08-.01.1-.01l1.73-.25.34,2.39.52.27h0Z"/>
      <path class="cls-7" d="M33.22,67.59c.58,0,1.05.47,1.05,1.05s-.47,1.05-1.05,1.05-1.05-.47-1.05-1.05.47-1.05,1.05-1.05h0Z"/>
      <path class="cls-7" d="M50.31,67.59c.58,0,1.05.47,1.05,1.05s-.47,1.05-1.05,1.05-1.05-.47-1.05-1.05.47-1.05,1.05-1.05h0Z"/>
      <path class="cls-7" d="M29.43,74.04c.8,0,1.45.65,1.45,1.45s-.65,1.45-1.45,1.45-1.45-.65-1.45-1.45.65-1.45,1.45-1.45h0Z"/>
      <path class="cls-7" d="M53.29,74.2c.8,0,1.45.65,1.45,1.45s-.65,1.45-1.45,1.45-1.45-.65-1.45-1.45.65-1.45,1.45-1.45h0Z"/>
      <path class="cls-6" d="M21.29,77.47l-11.55,17.02,12.24.23,9.01-13.26c-3.33-1.2-6.59-2.36-9.7-3.99h0ZM61.99,77.47l11.55,17.02-12.24.23-9.01-13.26c3.33-1.2,6.59-2.36,9.7-3.99h0Z"/>
    </g>
  </g>
</svg>